<svg width="101" height="51" viewBox="0 0 101 51" fill="none" xmlns="http://www.w3.org/2000/svg">
<path fill-rule="evenodd" clip-rule="evenodd" d="M37.5178 3.41749L37.5168 3.42424C37.1198 5.99906 36.7229 8.57391 36.3259 11.1656H36.3159L36.3067 11.1627L36.2992 11.1604L36.2991 11.1604L36.299 11.1604C36.2697 11.1516 36.2325 11.1404 36.2159 11.1156C33.3055 7.62481 27.9347 8.34497 25.2844 11.3856C23.1941 13.7962 22.564 16.5968 22.904 19.6775C23.1441 21.908 24.1142 23.7584 26.0745 24.9686C28.4048 26.3989 31.7053 25.9188 34.0056 23.8784L34.0057 23.8783C34.1557 23.7483 34.3057 23.6183 34.5357 23.4283C34.4657 24.0684 34.4057 24.5885 34.3456 25.0987H39.7664C40.2466 22.0637 40.7267 19.0329 41.2069 16.0022L41.2095 15.9857C42.0086 10.9414 42.8078 5.89712 43.6069 0.833313H37.9161L37.5178 3.41749ZM33.2455 20.6777C30.9352 21.5079 28.6248 20.0675 28.7749 17.647H28.7849C28.7849 16.0767 29.2649 14.8164 30.4751 13.9462C31.6353 13.116 32.9354 13.016 34.2156 13.6561C35.4758 14.2863 35.9259 15.4165 35.8359 16.7768C35.7158 18.5672 35.0057 20.0375 33.2455 20.6777ZM46.4473 46.9235H51.8781L51.8681 46.9135C52.6087 42.2568 53.3428 37.6167 54.0778 32.9704L54.0793 32.9608L54.0809 32.9505L54.0812 32.9486L54.0815 32.9468L54.0826 32.94C54.6264 29.5025 55.1707 26.0616 55.7186 22.6081C55.2125 22.6081 54.7146 22.6109 54.2225 22.6136H54.2223H54.2221H54.2219H54.2217H54.2214H54.2212H54.221H54.2208H54.2206H54.2204C53.0893 22.6199 51.9886 22.626 50.888 22.5981C50.2779 22.5881 49.9078 22.6781 49.9078 23.3983C49.9146 23.7037 49.8523 24.0044 49.7897 24.3068C49.7601 24.4502 49.7303 24.5939 49.7078 24.7386C49.4748 26.2287 49.2448 27.7187 49.0145 29.2104C48.8197 30.4723 48.6247 31.7353 48.4276 33.0004L48.399 32.9779C48.3531 32.9421 48.2986 32.8996 48.2576 32.8504C45.3472 29.4596 39.9464 30.1398 37.2761 33.3405C35.1358 35.901 34.5157 38.8817 35.1158 42.0624C36.2559 48.0737 42.1767 48.9239 45.8273 45.9432C45.9869 45.8143 46.139 45.6816 46.3113 45.5312L46.3114 45.5311L46.3115 45.531C46.4198 45.4365 46.5362 45.335 46.6674 45.2231C46.6214 45.5905 46.5788 45.9151 46.5376 46.229C46.507 46.462 46.4772 46.6891 46.4473 46.9235ZM44.4323 42.7048C44.3731 42.7114 44.3234 42.717 44.2874 42.7225C42.0532 42.7087 40.8366 41.359 40.8866 39.1418C40.9366 36.4812 43.1269 34.6408 45.5672 35.1909C46.8674 35.4909 47.7575 36.4712 47.9176 37.7915C48.1876 40.062 46.9474 42.1224 45.0171 42.6125C44.8075 42.6631 44.5873 42.6876 44.4323 42.7048ZM25.5344 30.4998C29.1549 30.5098 32.1053 32.2802 33.1755 35.2409C34.9657 40.222 32.5654 46.0433 26.5646 47.3436C24.7143 47.7436 22.864 47.7236 21.0438 47.1635C17.4033 46.0433 15.343 42.6325 15.873 38.6016C16.5331 33.5105 20.1536 30.4798 25.5444 30.4898L25.5344 30.4998ZM21.3638 39.8919C21.3338 40.9121 21.6939 41.9224 22.774 42.5125C23.9042 43.1226 25.0743 43.0426 26.1745 42.3925C27.7947 41.4423 28.6348 39.0517 28.0548 37.1713C27.4247 35.1309 24.7243 34.5107 22.994 36.0111C21.8639 36.9913 21.3638 38.2516 21.3538 39.8919H21.3638ZM64.4199 43.5627C62.0795 44.0228 60.4093 42.6225 60.7294 40.382L60.7094 40.372H72.511C72.5291 40.2023 72.551 40.0417 72.5722 39.887L72.5722 39.8867V39.8867C72.6097 39.6129 72.6446 39.3573 72.651 39.1017C72.741 35.9911 71.7609 33.3905 69.0005 31.6701C67.2603 30.5699 65.3 30.3798 63.3097 30.5699C60.0093 30.8799 57.5089 32.4803 56.0787 35.5009C55.0486 37.6714 54.9485 39.9819 55.5386 42.3024C56.1787 44.813 57.7989 46.4334 60.2693 47.1535C62.6796 47.8637 65.11 47.7537 67.4803 46.9235C68.6505 46.5134 69.7106 45.8932 70.6007 44.953C70.0605 44.4428 69.5253 43.9376 68.9901 43.4323L68.9854 43.4278C68.452 42.9243 67.9186 42.4208 67.3803 41.9124C66.5702 42.6025 65.64 43.3227 64.4199 43.5627ZM64.7699 34.4407C66.1701 34.5507 67.0803 35.4809 67.2303 36.9913H61.1894C61.5895 35.3809 63.1097 34.3107 64.7699 34.4407ZM61.1294 18.5772C60.8394 20.3276 61.8495 21.6379 63.5297 21.7879C64.8499 21.908 66.0001 21.4779 67.0302 20.6877C67.0946 20.6388 67.1585 20.5895 67.2205 20.5416L67.2211 20.5412C67.4381 20.3736 67.6315 20.2242 67.7403 20.1776C68.346 20.7323 68.9516 21.2902 69.5626 21.8531L69.566 21.8563L69.5662 21.8564L69.5664 21.8566L69.5676 21.8577L69.5873 21.8759C70.0479 22.3002 70.5116 22.7274 70.9808 23.1582C70.0407 24.0784 68.9605 24.7386 67.7403 25.1487C65.51 25.8988 63.2497 25.9989 60.9694 25.4187C58.029 24.6686 56.1287 22.5381 55.7186 19.5374C55.4386 17.497 55.5786 15.4865 56.4988 13.6161C57.979 10.6155 60.4693 9.04512 63.7798 8.74506C65.54 8.58502 67.2803 8.74506 68.9005 9.56524C71.7209 10.9956 73.2811 13.8562 73.0411 17.407C72.9618 18.5673 72.9217 18.5673 71.7804 18.5672H71.7509H61.8195H61.1394L61.1294 18.5772ZM67.6103 15.1665C67.4603 13.5661 66.4602 12.6259 64.9099 12.6059C63.3197 12.5859 61.7495 13.8062 61.6095 15.1665H67.6103ZM70.5107 50.8243H72.721L72.711 50.8143C72.9204 50.8143 73.1299 50.8094 73.3393 50.8046C73.7999 50.7938 74.2606 50.7831 74.7213 50.8243C75.5114 50.8943 75.9215 50.5543 76.2415 49.8441C78.5085 44.8497 80.7844 39.8552 83.0603 34.8608L83.0629 34.855L83.0656 34.8491C84.2017 32.3558 85.3379 29.8625 86.473 27.3692C86.853 26.529 86.633 26.1589 85.6929 26.1489C85.1246 26.1407 84.5547 26.1443 83.9845 26.1479C83.1697 26.1531 82.3542 26.1583 81.5423 26.1289C80.6822 26.0989 80.2021 26.439 79.852 27.2091C78.4396 30.3748 76.9996 33.5267 75.5607 36.6762C75.2674 37.3181 74.9742 37.9599 74.6813 38.6016C73.0111 42.2624 71.3508 45.9232 69.6906 49.5841C69.2605 50.5443 69.4406 50.8243 70.5107 50.8243ZM87.0231 10.4354C86.6588 11.2087 86.3028 11.9738 85.9444 12.7437L85.9441 12.7444C85.7417 13.1794 85.5386 13.6158 85.3328 14.0562C85.2358 13.9976 85.1414 13.94 85.0488 13.8835C84.7309 13.6894 84.4348 13.5088 84.1326 13.3461C83.2725 12.866 82.3624 12.5259 81.3523 12.6159C81.0022 12.6459 80.6222 12.7559 80.3221 12.946C79.722 13.3161 79.702 13.9062 80.2721 14.3063C80.5796 14.5284 80.9382 14.6921 81.2917 14.8536L81.292 14.8537C81.3523 14.8812 81.4125 14.9087 81.4723 14.9364C81.8538 15.1209 82.2405 15.2966 82.6274 15.4723L82.6278 15.4725C83.1637 15.7159 83.7 15.9595 84.2227 16.2267C87.8432 18.0871 87.1031 22.5881 84.5927 24.3185C82.9925 25.4287 81.1922 25.7388 79.302 25.7188C76.9516 25.6888 74.7913 25.0386 72.741 23.7384C73.1685 22.8833 73.5874 22.0369 74.0118 21.1793C74.2328 20.7327 74.4553 20.283 74.6813 19.8275C74.846 19.9183 75.0017 20.0113 75.1529 20.1017C75.4516 20.2801 75.7327 20.4481 76.0315 20.5677C76.9216 20.9277 77.8318 21.2678 78.7619 21.5579C79.1019 21.6579 79.492 21.6479 79.852 21.5979C80.4521 21.5179 81.0122 21.2778 81.1422 20.6077C81.2722 19.9875 80.7822 19.6675 80.3421 19.4074C79.9012 19.1554 79.4416 18.9406 78.9781 18.724C78.8529 18.6655 78.7274 18.6068 78.6019 18.5472C78.3714 18.4354 78.1372 18.331 77.9032 18.2266L77.9031 18.2266C77.4671 18.0321 77.0316 17.8378 76.6216 17.597C74.1913 16.1567 73.7012 13.186 75.5314 11.0156C76.6416 9.70527 78.1218 9.05512 79.802 8.78506C82.1624 8.40498 85.2628 9.07513 87.0231 10.4254V10.4354ZM99.1848 14.0662C99.7648 12.816 100.315 11.6357 100.875 10.4354H100.865C100.822 10.4022 100.783 10.3701 100.747 10.3399C100.673 10.279 100.608 10.2255 100.535 10.1854C98.4447 8.9251 96.1543 8.495 93.744 8.79507C92.1038 8.99511 90.6636 9.64525 89.5234 10.8655C87.5431 12.986 87.9632 16.1267 90.4435 17.607C90.8202 17.8345 91.2273 18.0215 91.6323 18.2077C91.7972 18.2834 91.9617 18.3591 92.1238 18.4372C92.3378 18.5413 92.5542 18.6404 92.7703 18.7393L92.7706 18.7394C93.3018 18.9826 93.8307 19.2246 94.3141 19.5374C94.6341 19.7475 94.9642 20.2276 94.9642 20.5977C94.9842 21.1678 94.4541 21.5379 93.914 21.5579C93.1939 21.5879 92.4238 21.5979 91.7537 21.3778C90.9662 21.1201 90.2145 20.7598 89.4327 20.3851C89.1224 20.2364 88.8073 20.0853 88.4833 19.9375C88.1769 20.5502 87.8658 21.1751 87.5509 21.8073C87.2283 22.455 86.9019 23.1104 86.573 23.7684C88.6133 25.0587 90.7536 25.6988 93.0839 25.7388C95.1442 25.7688 97.0645 25.4187 98.7447 24.0984C100.845 22.4381 101.605 18.2171 98.2746 16.3767C97.6746 16.0433 97.0478 15.7544 96.4211 15.4654L96.4209 15.4654C96.1076 15.3209 95.7942 15.1765 95.4842 15.0264C95.3695 14.9717 95.252 14.9189 95.1339 14.8659C94.7992 14.7157 94.4598 14.5633 94.1641 14.3563C93.544 13.9262 93.584 13.2761 94.2441 12.906C94.5341 12.7459 94.8942 12.6659 95.2242 12.6359C96.2143 12.5459 97.1045 12.886 97.9446 13.3461C98.2821 13.5317 98.6197 13.7317 98.9813 13.9458L98.9814 13.9459L98.9817 13.946L98.9821 13.9463L99.1848 14.0662ZM14.3328 36.9913C14.2115 36.8859 14.1014 36.7887 13.998 36.6974C13.7773 36.5026 13.587 36.3345 13.3827 36.1711C11.7925 34.9108 9.90221 34.7808 8.54202 35.831C7.0318 37.0013 6.41172 39.3818 7.19183 41.0822C7.81191 42.4425 9.31212 43.0926 11.0524 42.6225C11.6359 42.4664 12.1919 42.2045 12.767 41.9334L12.7671 41.9334C13.0397 41.8049 13.3165 41.6745 13.6027 41.5523L13.5789 41.7446L13.5789 41.7448C13.5465 42.0072 13.5128 42.2798 13.4727 42.5525C13.4184 42.8809 13.3648 43.21 13.3111 43.5392L13.311 43.5399L13.3109 43.5406L13.3108 43.5413C13.157 44.4849 13.0031 45.4296 12.8326 46.3633C12.8026 46.5434 12.6626 46.7934 12.5226 46.8434C10.1922 47.6136 7.82191 47.9437 5.47158 47.0135C2.69119 45.9132 1.27099 43.7328 0.950948 40.8421C0.47088 36.5912 2.28113 32.9204 5.97165 31.32C8.82205 30.0898 11.7125 30.0097 14.5229 31.5801C14.9729 31.8301 15.1729 32.0802 15.0629 32.6403C14.8735 33.5878 14.7252 34.5444 14.5717 35.5349L14.5716 35.535L14.5716 35.5356L14.5715 35.5359C14.4982 36.009 14.4236 36.4899 14.3428 36.9813L14.3328 36.9913ZM88.2522 35.3495L88.2716 35.3684L88.2785 35.3751C89.9136 36.9707 91.5499 38.5674 93.3039 40.282L93.2939 40.292C92.7217 40.8488 92.16 41.3941 91.6061 41.9318L91.6027 41.9352C90.367 43.1349 89.1703 44.2966 87.9832 45.4631C87.4231 46.0133 87.4131 46.4134 87.9632 46.9535C88.4559 47.4405 88.9551 47.9209 89.4534 48.4004L89.4537 48.4007L89.4539 48.4009L89.4541 48.4011L89.4543 48.4013C89.8257 48.7586 90.1964 49.1154 90.5636 49.474C90.9736 49.8641 91.3737 49.8341 91.7537 49.454C93.1889 48.0237 94.6241 46.5909 96.0593 45.1581C97.4945 43.7253 98.9297 42.2924 100.365 40.8621C100.765 40.472 100.755 40.072 100.365 39.6819L100.363 39.6797C97.5331 36.8698 94.7034 34.0599 91.8537 31.26C91.3137 30.7299 90.8936 30.7599 90.3435 31.3C89.6341 31.9995 88.9347 32.699 88.2352 33.3985L88.2332 33.4005C87.3631 34.2607 87.3631 34.4707 88.2332 35.3309L88.2522 35.3495ZM16.4731 13.7162L16.8216 14.0614C17.7704 15.0015 18.627 15.8502 19.4836 16.7068C19.8637 17.0869 20.2438 17.4696 20.6239 17.8522C21.0039 18.2348 21.3839 18.6173 21.7639 18.9973C22.324 19.5674 22.334 19.9275 21.7639 20.4776C20.9338 21.2978 20.0936 22.108 19.2635 22.9082C18.7735 23.3783 18.4234 23.3883 17.9333 22.9082C16.7832 21.778 15.6331 20.6278 14.493 19.4876L14.4929 19.4874C12.8726 17.8771 11.2524 16.2667 9.63217 14.6464C8.91207 13.9262 8.91207 13.7061 9.61217 13.006L9.61315 13.005L9.61334 13.0048C12.3533 10.2846 15.0933 7.56441 17.8433 4.8542C18.4434 4.25407 18.8235 4.26407 19.4335 4.8542C19.625 5.04062 19.8164 5.2264 20.0077 5.41203L20.0078 5.41209C20.576 5.96347 21.1427 6.51348 21.7039 7.07469C22.334 7.70483 22.334 8.08491 21.7039 8.71505C20.1837 10.2454 18.6534 11.7657 17.1132 13.2761C16.99 13.392 16.8406 13.4869 16.6764 13.5913L16.6763 13.5913C16.6138 13.631 16.5492 13.6721 16.4831 13.7162H16.4731ZM44.5783 13.7603C43.9765 17.5239 43.3718 21.3057 42.7568 25.1387H42.7668C43.1472 25.1387 43.5222 25.1391 43.893 25.1395C45.3552 25.1411 46.7514 25.1426 48.1476 25.1187C48.2876 25.1187 48.5176 24.8586 48.5476 24.6986C48.657 24.0512 48.7561 23.4018 48.8551 22.7522C48.9734 21.9766 49.0917 21.2006 49.2277 20.4276C49.2822 20.117 49.3335 19.8048 49.3849 19.4923C49.5602 18.4261 49.7362 17.3555 50.0379 16.3267C50.5779 14.4663 51.8881 13.6861 53.8384 13.8462C54.1381 13.8717 54.4337 13.9175 54.7435 13.9656C54.9195 13.9928 55.1001 14.0208 55.2886 14.0462C55.4575 13.2906 55.6264 12.5429 55.7953 11.7952C56.0064 10.8603 56.2176 9.92542 56.4288 8.97511C54.0084 8.54501 52.1181 9.23516 50.6179 11.0756C50.664 10.6871 50.7144 10.2986 50.7664 9.89865C50.7933 9.6911 50.8206 9.48047 50.848 9.26517H45.2972C45.0577 10.762 44.8182 12.2597 44.5783 13.7603Z" fill="black"/>
</svg>
