<svg width="121" height="47" viewBox="0 0 121 47" fill="none" xmlns="http://www.w3.org/2000/svg">
<g clip-path="url(#clip0_305_151)">
<path d="M47.5471 7.16805H54.3923V10.0483C55.2112 8.96151 56.188 8.15141 57.3233 7.61923C58.4586 7.08704 59.6692 6.82095 60.9565 6.82095V13.8659C60.0903 13.8197 59.2828 13.8777 58.5345 14.0397C57.7851 14.2017 57.1241 14.456 56.5511 14.8031C55.9774 15.1502 55.5037 15.5842 55.1293 16.1046C54.7548 16.6249 54.509 17.2322 54.3923 17.9264V25.8388H47.5471V7.16805Z" fill="black"/>
<path d="M61.9045 16.5033C61.9045 15.0694 62.1151 13.7567 62.5368 12.5646C62.9579 11.3731 63.5548 10.3554 64.327 9.51045C65.0992 8.66606 66.0234 8.00674 67.1001 7.53251C68.1761 7.05887 69.3694 6.82116 70.6806 6.82116C71.7567 6.82116 72.6521 7.00092 73.3663 7.35925C74.0799 7.71818 74.6709 8.22139 75.1392 8.86888V0.852448H81.9845V25.8384H75.1392V24.1378C74.6709 24.7858 74.0799 25.2831 73.3663 25.6302C72.6521 25.9773 71.7453 26.1506 70.6459 26.1506C69.3348 26.1506 68.1414 25.9194 67.0654 25.4564C65.9887 24.994 65.0699 24.3341 64.3097 23.4784C63.5488 22.6228 62.9585 21.6046 62.5374 20.4243C62.1157 19.2446 61.9051 17.9378 61.9051 16.5027L61.9045 16.5033ZM75.1386 16.1911C75.0686 15.4047 74.7408 14.7572 74.1559 14.2475C73.5703 13.7389 72.8573 13.4841 72.0145 13.4841C71.0784 13.4841 70.3295 13.7738 69.7678 14.3515C69.2062 14.9304 68.9256 15.6589 68.9256 16.5376C68.9256 17.4163 69.2115 18.0993 69.7858 18.6545C70.3588 19.2098 71.1023 19.4871 72.0151 19.4871C72.8806 19.4871 73.6062 19.2269 74.1917 18.706C74.7761 18.1856 75.0926 17.5322 75.1398 16.7452V16.1899L75.1386 16.1911Z" fill="black"/>
<path d="M22.2279 46.5205L15.979 27.8504H23.2807L26.019 37.6017L28.5115 27.8504H34.4093L36.9018 37.6017L39.6395 27.8504H46.9412L40.6929 46.5205H34.2334L31.4604 37.1855L28.6874 46.5205H22.2279Z" fill="black"/>
<path d="M54.0675 38.539C54.2548 39.2799 54.6119 39.8523 55.1382 40.2567C55.6646 40.6618 56.3369 40.864 57.1564 40.864C57.6008 40.864 58.0746 40.7251 58.5782 40.4477C59.0812 40.1698 59.4497 39.8351 59.6836 39.4413H66.8799C66.6461 40.5755 66.2423 41.599 65.6687 42.5126C65.0951 43.4268 64.3815 44.2014 63.5273 44.8376C62.6725 45.4745 61.6958 45.9653 60.5964 46.3124C59.4958 46.6595 58.3025 46.8327 57.0158 46.8327C55.5414 46.8327 54.1955 46.6015 52.9789 46.1385C51.7617 45.6761 50.7149 45.0162 49.8374 44.1606C48.9599 43.305 48.281 42.2867 47.8013 41.1065C47.3216 39.9268 47.0817 38.62 47.0817 37.1849C47.0817 35.7498 47.3216 34.4382 47.8013 33.2461C48.281 32.0546 48.9599 31.037 49.8374 30.192C50.7149 29.3476 51.7623 28.6883 52.9789 28.2141C54.1955 27.7404 55.5414 27.5027 57.0158 27.5027C58.3503 27.5027 59.5903 27.6996 60.7369 28.0928C61.883 28.4867 62.8897 29.0472 63.7558 29.7757C64.6213 30.5042 65.3295 31.3669 65.8798 32.3609C66.4295 33.3561 66.7747 34.4666 66.9152 35.6924C66.9852 36.2246 67.0259 36.7047 67.0385 37.1328C67.0498 37.5609 67.0438 38.0293 67.0211 38.5384H54.0675V38.539ZM59.7901 35.3808C59.6262 34.8722 59.2924 34.4264 58.7893 34.0444C58.2857 33.663 57.7306 33.472 57.1217 33.472C55.6706 33.472 54.7111 34.1083 54.2434 35.3808H59.7901Z" fill="black"/>
<path d="M88.4349 46.5205H81.5897V44.8199C81.1213 45.468 80.5304 45.9653 79.8174 46.3124C79.1032 46.6595 78.1964 46.8327 77.097 46.8327C75.7858 46.8327 74.5925 46.6015 73.5164 46.1385C72.4398 45.6761 71.521 45.0162 70.7607 44.1606C70.0005 43.305 69.4095 42.2867 68.9878 41.1065C68.5667 39.9268 68.3562 38.62 68.3562 37.1849C68.3562 35.7498 68.5667 34.4382 68.9878 33.2461C69.4095 32.0546 70.0059 31.037 70.7787 30.192C71.5509 29.3476 72.475 28.6883 73.5517 28.2141C74.6278 27.7404 75.8211 27.5027 77.1323 27.5027C78.2083 27.5027 79.1032 27.6825 79.818 28.0408C80.5315 28.3997 81.1219 28.9029 81.5903 29.5504V27.8498H88.4355V46.5199L88.4349 46.5205ZM81.5897 36.8733C81.5197 36.0868 81.1913 35.4393 80.6069 34.9296C80.0213 34.4211 79.3077 34.1662 78.4655 34.1662C77.5294 34.1662 76.7805 34.456 76.2189 35.0337C75.6572 35.6126 75.3761 36.3411 75.3761 37.2198C75.3761 38.0985 75.6626 38.7814 76.2362 39.3367C76.8092 39.8919 77.5528 40.1692 78.4655 40.1692C79.3311 40.1692 80.0566 39.9091 80.6422 39.3881C81.2266 38.8678 81.543 38.2143 81.5903 37.4273V36.8721L81.5897 36.8733Z" fill="black"/>
<path d="M91.1374 27.8504H97.9826V30.7307C98.8015 29.6438 99.7783 28.8337 100.914 28.3016C102.048 27.7694 103.26 27.5033 104.547 27.5033V34.5482C103.681 34.5021 102.873 34.56 102.125 34.722C101.375 34.8841 100.714 35.1383 100.141 35.4854C99.5677 35.8325 99.094 36.2666 98.7196 36.7869C98.3451 37.3073 98.0993 37.9145 97.9826 38.6087V46.5211H91.1374V27.851V27.8504Z" fill="black"/>
<path d="M1.27765 20.4633C1.27765 20.4591 1.27645 20.4543 1.27585 20.4495C1.27107 20.4663 1.26868 20.48 1.26868 20.4884C1.26868 20.504 1.27885 20.4956 1.27765 20.4633Z" fill="black"/>
<path d="M6.0234 22.4316C5.67767 22.5026 5.33134 22.5706 4.98321 22.6338C4.70866 22.6835 4.43351 22.7302 4.15717 22.774V25.8382H11.0407V21.1343C9.72775 21.5352 8.40045 21.8959 7.05641 22.2051C6.71307 22.2832 6.36913 22.3589 6.024 22.431L6.0234 22.4316Z" fill="black"/>
<path d="M1.24596 20.3687C1.25553 20.383 1.28544 20.4195 1.29321 20.401C1.2968 20.392 1.30218 20.3818 1.30697 20.3729C1.28903 20.3681 1.27288 20.3639 1.26151 20.3597C1.23938 20.3531 1.234 20.3501 1.24596 20.3687Z" fill="black"/>
<path d="M15.982 21.045V25.8388H22.8656V22.4204C22.207 22.4174 21.5101 22.3465 20.8689 22.2501C19.413 22.0325 17.746 21.6186 15.982 21.045Z" fill="black"/>
<path d="M22.8649 21.8988V16.0076C22.7968 16.0484 22.7286 16.0892 22.6604 16.13C21.4521 16.8437 20.2169 17.5083 18.9548 18.1138C17.9786 18.5821 16.9863 19.0144 15.9814 19.4147V20.498C17.7771 21.0899 19.4734 21.5162 20.9467 21.7362C21.6651 21.8438 22.3093 21.897 22.8649 21.8994V21.8988Z" fill="black"/>
<path d="M4.15656 17.208V20.0687C4.64883 19.9564 5.14111 19.8287 5.63279 19.6938C6.19386 19.5371 6.75373 19.3704 7.3124 19.1977C8.07923 18.9577 8.84307 18.7034 9.60512 18.4414C7.48407 17.3948 5.60408 16.2654 4.15715 15.1591V17.2074L4.15656 17.208Z" fill="black"/>
<path d="M4.15656 10.3937V14.4986C4.23192 14.5589 4.30849 14.6198 4.38744 14.6807C5.9217 15.8668 7.97575 17.0861 10.2984 18.2008C10.5454 18.1138 10.7925 18.0263 11.0395 17.9376V16.7112C11.0628 15.8042 11.3045 15.0709 11.7633 14.5127C11.9319 14.3076 12.1275 14.1402 12.3488 14.0101C12.5462 13.8942 12.7646 13.8085 13.0038 13.7529C13.2251 13.7015 13.4644 13.6754 13.7222 13.6754C14.3808 13.6754 14.9221 13.9315 15.3462 14.443C15.7105 14.8835 15.9174 15.4275 15.9683 16.0744L17.2351 15.5878L18.8795 14.9539C19.4286 14.7445 19.9735 14.5258 20.5166 14.3022C21.3068 13.9788 22.0903 13.6388 22.8542 13.2668C22.8147 12.4278 22.6646 11.6502 22.4008 10.9341C22.4002 10.9323 22.3996 10.93 22.3984 10.9282C22.3954 10.9193 22.3918 10.9105 22.3888 10.9016C22.3493 10.7958 22.3075 10.6911 22.2638 10.5888C22.256 10.5699 22.2471 10.5515 22.2387 10.5332C21.9366 9.84078 21.546 9.23646 21.0651 8.72083C20.5005 8.11592 19.8233 7.65115 19.0356 7.32475C18.2466 6.99952 17.3703 6.83632 16.4055 6.83632C15.3468 6.83632 14.3634 7.03441 13.4578 7.42941C12.5516 7.825 11.7459 8.36013 11.0401 9.03482V0.833313H4.15656V10.1282C4.15656 10.1282 4.15715 10.1282 4.15775 10.1282L4.15656 10.3937Z" fill="black"/>
<path d="M37.9994 7.16805V8.86867C37.531 8.22118 36.9401 7.71797 36.2265 7.35905C35.5123 7.00071 34.6174 6.82095 33.5408 6.82095C32.2296 6.82095 31.0363 7.05866 29.9602 7.5323C28.8836 8.00713 27.9594 8.66644 27.1872 9.51024C26.799 9.93481 26.4551 10.4037 26.1554 10.9158C26.3163 10.9406 26.4826 10.9767 26.6632 11.0624C26.7589 11.1097 26.8606 11.1724 26.9545 11.2724C27.0478 11.3699 27.125 11.5118 27.1519 11.6561C27.18 11.8004 27.1669 11.9352 27.14 12.0487C27.1124 12.1623 27.0724 12.2604 27.0287 12.348C26.9402 12.5242 26.8367 12.6667 26.7302 12.8003C26.5155 13.0646 26.287 13.2911 26.0513 13.5052C25.687 13.8345 25.3096 14.1343 24.9268 14.4223C24.8191 15.0845 24.7653 15.7782 24.7653 16.5025C24.7653 17.6166 24.8939 18.6519 25.1475 19.6122C25.5118 20.1438 25.6781 20.6228 25.6404 21.0379C26.0364 21.9603 26.5448 22.7752 27.1699 23.4782C27.9301 24.3345 28.8489 24.9938 29.9255 25.4562C31.0016 25.9186 32.1949 26.1504 33.5061 26.1504C34.6055 26.1504 35.5123 25.9765 36.2265 25.63C36.9401 25.2829 37.531 24.7856 37.9994 24.1375V25.8382H44.8446V7.16805H37.9994ZM37.9994 16.7461C37.9521 17.5332 37.6363 18.1866 37.0513 18.7069C36.4657 19.2273 35.7402 19.4881 34.8747 19.4881C33.9619 19.4881 33.219 19.2101 32.6453 18.6555C32.0717 18.1002 31.7852 17.3948 31.7852 16.5386C31.7852 15.6824 32.0663 14.9308 32.628 14.3525C33.1897 13.7748 33.9385 13.485 34.8747 13.485C35.7174 13.485 36.4304 13.7399 37.016 14.2484C37.601 14.7576 37.9288 15.4056 37.9988 16.1921V16.7473L37.9994 16.7461Z" fill="black"/>
<path d="M9.60512 18.4414C9.60512 18.4414 9.60512 18.4414 9.60572 18.4414C8.84367 18.704 8.07983 18.9576 7.31241 19.1977C6.75373 19.3704 6.19386 19.5377 5.63279 19.6938C5.14111 19.8286 4.64884 19.9558 4.15656 20.0687C4.08657 20.0847 4.01719 20.1012 3.9472 20.1166C3.38614 20.2372 2.82208 20.3443 2.27836 20.3945C2.00919 20.4188 1.74002 20.4282 1.51572 20.4069C1.43437 20.3999 1.39848 20.2112 1.46428 20.1249C1.61561 19.928 1.8112 19.7305 2.01697 19.5413C2.43268 19.1628 2.89685 18.8086 3.37358 18.4722C3.63018 18.2924 3.89158 18.1174 4.15596 17.9459V17.2079C3.75639 17.409 3.35922 17.6177 2.96564 17.8359C2.43747 18.131 1.91409 18.4402 1.40745 18.8086C1.15443 18.9943 0.904406 19.1918 0.663949 19.439C0.544319 19.5643 0.425287 19.7003 0.316423 19.8807C0.262589 19.9712 0.211148 20.074 0.17167 20.2012C0.133987 20.3277 0.108266 20.4856 0.135781 20.6636C0.160903 20.841 0.251823 21.0231 0.362481 21.1485C0.473737 21.2774 0.593367 21.3584 0.702829 21.4205C0.923547 21.5399 1.11555 21.5913 1.29919 21.6327C1.66286 21.7096 1.99304 21.7285 2.31844 21.7374C2.96623 21.7486 3.58652 21.7013 4.20082 21.631C4.81452 21.5606 5.41925 21.4678 6.0192 21.3578C6.61915 21.2496 7.21491 21.126 7.80528 20.9882C9.3533 20.6305 10.8762 20.1958 12.3782 19.7033C12.2759 19.6607 12.173 19.6181 12.0707 19.5744C11.2213 19.2125 10.3965 18.8329 9.60392 18.4414H9.60512Z" fill="#E20A90"/>
<path d="M26.845 10.8306C26.8181 10.6899 26.7422 10.5515 26.6494 10.4557C26.5567 10.3582 26.4562 10.2967 26.3617 10.2506C26.1715 10.1613 25.9963 10.1276 25.8282 10.1027C25.4926 10.0584 25.1786 10.0667 24.8682 10.0862C24.2497 10.1293 23.6533 10.231 23.0623 10.3499C22.786 10.4061 22.5114 10.4676 22.2381 10.532C22.2465 10.5509 22.2548 10.5687 22.2632 10.5876C22.3069 10.6899 22.3481 10.794 22.3882 10.9004C22.3918 10.9093 22.3948 10.9182 22.3978 10.927C22.6454 10.8886 22.8937 10.8525 23.1419 10.8212C23.7263 10.749 24.3137 10.6964 24.8873 10.7005C25.172 10.7041 25.4573 10.7218 25.7098 10.7762C25.8336 10.8034 25.9514 10.8425 26.0268 10.888C26.0639 10.9105 26.0884 10.9329 26.095 10.9459C26.1021 10.9595 26.0908 10.985 26.0794 11.0163C26.068 11.0477 26.0477 11.0885 26.0202 11.1316C25.9658 11.2191 25.8856 11.3149 25.7971 11.4072C25.6176 11.5934 25.3981 11.7667 25.172 11.9328C24.7156 12.2634 24.2156 12.5585 23.7041 12.8334C23.4242 12.983 23.1401 13.1261 22.8536 13.2657C22.0897 13.637 21.3062 13.9776 20.516 14.3011C19.9729 14.5246 19.428 14.7434 18.8789 14.9527L17.2345 15.5866L15.9677 16.0732L13.9465 16.8502C12.9817 17.2233 12.0127 17.5864 11.0395 17.937C10.793 18.0257 10.546 18.1132 10.2984 18.2002C10.9402 18.5082 11.6011 18.808 12.2789 19.0972C12.5642 19.2184 12.8489 19.3361 13.1324 19.4508C13.669 19.2669 14.2037 19.0765 14.7349 18.8784C15.8636 18.4544 16.9743 17.9843 18.0618 17.4622C18.3327 17.3304 18.6037 17.1973 18.8735 17.0613C19.142 16.9235 19.41 16.7846 19.6762 16.6421C20.2068 16.3529 20.7343 16.059 21.2553 15.7521C22.2955 15.1348 23.3183 14.4867 24.3077 13.776C24.8018 13.4188 25.2892 13.0504 25.7552 12.6347C25.9885 12.426 26.214 12.2049 26.4263 11.9464C26.5316 11.8158 26.6345 11.6768 26.7218 11.5047C26.7655 11.419 26.805 11.3238 26.8319 11.2126C26.8582 11.1021 26.8714 10.9702 26.8438 10.8295L26.845 10.8306Z" fill="#E20A90"/>
<path d="M22.8129 21.9911C22.143 21.9911 21.4312 21.9184 20.7774 21.8208C18.2759 21.4465 15.1518 20.4962 11.981 19.1457C8.81019 17.7945 5.96597 16.2021 3.97353 14.6612C2.50327 13.5241 0.86015 11.9169 1.38293 10.7165C1.68859 10.0152 2.5924 9.67286 4.15656 9.69947L4.15836 10.192C2.86456 10.1696 2.0732 10.4463 1.86564 10.9217C1.56956 11.6005 2.47875 12.8458 4.29713 14.2514C6.25548 15.7657 9.05842 17.3345 12.1891 18.6679C15.3199 20.0019 18.398 20.9391 20.8564 21.3063C23.1389 21.6475 24.6786 21.4465 24.9746 20.7671C25.2528 20.1296 24.468 18.9925 22.865 17.6922L22.8668 17.0282C24.337 18.1653 25.9801 19.7725 25.4573 20.9728C25.1194 21.7481 24.0355 21.9905 22.8135 21.9905L22.8129 21.9911Z" fill="#E20A90"/>
<path d="M89.0235 14.8953C90.2659 14.8953 90.5978 15.3648 90.5978 15.8521V15.9142C90.5978 16.4345 90.1456 16.6781 89.8651 16.7402C90.2431 16.8254 90.8443 17.0796 90.8443 17.8211V17.8891C90.8443 18.5514 90.4321 19.1061 89.0468 19.1061H85.0165V14.8953H89.0241H89.0235ZM86.6417 16.4457H88.5312C88.8692 16.4457 88.9661 16.3097 88.9661 16.1513V16.14C88.9661 15.9703 88.8686 15.8515 88.5312 15.8515H86.6417V16.4457ZM86.6417 18.1156H88.6341C89.0576 18.1156 89.1377 17.9175 89.1377 17.7531V17.736C89.1377 17.5604 89.0516 17.3907 88.6341 17.3907H86.6417V18.115V18.1156Z" fill="#E20A90"/>
<path d="M94.3183 19.1061H92.6926V17.5213L90.3622 14.8953H92.3085L93.5509 16.35L94.816 14.8953H96.5967L94.3183 17.5326V19.1061Z" fill="#E20A90"/>
<path d="M86.6416 24.4125H85.0159V20.2018H88.8859C90.1343 20.2018 90.678 20.5979 90.678 21.2827V21.3448C90.678 21.9562 90.1396 22.2051 89.819 22.2844C90.34 22.4032 90.6953 22.7426 90.6953 23.286V23.9087C90.6953 24.2032 90.7354 24.3102 90.7755 24.3841V24.4125H89.115C89.0809 24.367 89.0636 24.3108 89.0636 24.1919V23.6994C89.0636 23.2127 88.8404 22.9691 88.1992 22.9691H86.6422V24.4125H86.6416ZM86.6416 21.9503H88.5079C88.8632 21.9503 89.0002 21.7918 89.0002 21.5878V21.5819C89.0002 21.3838 88.8686 21.2253 88.5079 21.2253H86.6416V21.9497V21.9503Z" fill="#E20A90"/>
<path d="M95.8185 20.2018V21.2318H92.7099V21.7581H95.7557V22.7823H92.7099V23.3594H95.8645V24.4119H91.1068V20.2012H95.8185V20.2018Z" fill="#E20A90"/>
<path d="M98.1196 20.2018L100.593 22.596V20.2018H102.207V24.4125H100.582L97.9138 21.8598V24.4125H96.2994V20.2018H98.1202H98.1196Z" fill="#E20A90"/>
<path d="M105.745 20.2018C108.201 20.2018 108.819 21.1975 108.819 22.1939V22.3636C108.819 23.3203 108.287 24.4178 105.751 24.4125H102.722V20.2018H105.745H105.745ZM105.556 23.2979C106.97 23.2979 107.13 22.6811 107.13 22.3133V22.2796C107.13 21.9118 106.976 21.3063 105.556 21.3063H104.348V23.2985H105.556V23.2979Z" fill="#E20A90"/>
<path d="M113.885 20.2018V21.2318H110.776V21.7581H113.822V22.7823H110.776V23.3594H113.931V24.4119H109.173V20.2012H113.885V20.2018Z" fill="#E20A90"/>
<path d="M115.991 24.4125H114.365V20.2018H118.235C119.484 20.2018 120.027 20.5979 120.027 21.2827V21.3448C120.027 21.9562 119.489 22.2051 119.169 22.2844C119.69 22.4032 120.045 22.7426 120.045 23.286V23.9087C120.045 24.2032 120.085 24.3102 120.125 24.3841V24.4125H118.465C118.43 24.367 118.413 24.3108 118.413 24.1919V23.6994C118.413 23.2127 118.19 22.9691 117.549 22.9691H115.992V24.4125H115.991ZM115.991 21.9503H117.857C118.213 21.9503 118.35 21.7918 118.35 21.5878V21.5819C118.35 21.3838 118.218 21.2253 117.857 21.2253H115.991V21.9497V21.9503Z" fill="#E20A90"/>
</g>
<defs>
<clipPath id="clip0_305_151">
<rect width="120" height="46" fill="white" transform="translate(0.125 0.833313)"/>
</clipPath>
</defs>
</svg>
