<svg width="300" height="300" viewBox="0 0 300 300" fill="none" xmlns="http://www.w3.org/2000/svg">
<path fill-rule="evenodd" clip-rule="evenodd" d="M300 0H0V289.419C0.559593 289.421 1.09774 289.681 1.50694 290.145C1.88842 290.339 2.28408 290.828 2.68837 291.328C3.48372 292.311 4.31241 293.335 5.13194 292.232C6.95833 292.232 8.08333 292.519 9.52778 294.048C10.8727 295.472 13.0185 294.193 14.6756 293.206C14.7981 293.132 14.918 293.061 15.0347 292.992C15.4653 292.924 15.9034 292.777 16.3465 292.629C17.4901 292.245 18.6671 291.851 19.8333 292.764C20.7156 292.489 21.5917 292.411 22.445 292.334C23.1633 292.27 23.8656 292.207 24.5417 292.029C26.2639 290.162 27.9583 289.317 29.9236 289.917C30.2654 289.999 30.5993 290.1 30.9288 290.2C32.3334 290.625 33.6565 291.025 35.1528 289.807C35.7868 290.848 36.3061 290.381 36.881 289.864C37.0805 289.684 37.2868 289.499 37.5069 289.368C39.3231 289.007 41.1185 288.504 42.8819 287.864C43.5176 287.628 44.0285 287.009 44.5194 286.415C45.1333 285.671 45.7159 284.966 46.4722 285.093C47.046 283.778 47.6643 284.276 48.2805 284.772C48.7531 285.153 49.2245 285.533 49.6736 285.093C50.5656 285.643 51.2788 285.093 52.1397 284.43C52.311 284.298 52.4881 284.161 52.6736 284.028C53.212 284.751 53.7774 284.493 54.3404 284.237C54.765 284.043 55.1882 283.85 55.5972 284.079C55.8424 284.057 56.1028 284.028 56.3739 283.999C58.1605 283.805 60.4122 283.561 61.8472 284.654C62.375 284.011 62.6875 284.104 63.2847 285.929C63.5205 285.929 63.7765 285.815 64.0407 285.698C64.6089 285.445 65.2146 285.175 65.7361 285.988C66.1555 285.988 66.4659 286.312 66.7586 286.617C67.1346 287.009 67.4815 287.371 67.9931 286.977C68.2852 287.55 68.5645 287.381 68.8505 287.207C68.9861 287.125 69.1232 287.041 69.2639 287.036C69.305 287.036 69.3537 287.005 69.4078 286.971C69.6184 286.836 69.9111 286.65 70.1597 288.041C70.3666 288.057 70.5955 288.003 70.8354 287.945C71.4814 287.791 72.2081 287.618 72.8056 288.751C72.9426 288.871 73.0766 289.013 73.2089 289.152C73.7474 289.72 74.2578 290.259 74.8264 289.207C75.0818 288.897 75.2808 288.551 75.4611 288.238C75.8837 287.504 76.2039 286.948 76.9097 287.433C77.225 287.542 77.5185 287.728 77.7719 287.981C78.0252 288.234 78.2329 288.548 78.382 288.903C79.0335 290.133 79.8827 289.849 80.7284 289.567C81.1897 289.412 81.6499 289.259 82.0764 289.351C82.2678 289.403 82.4592 289.457 82.6508 289.511C84.864 290.133 87.0872 290.758 89.2986 289.351C89.6128 289.499 89.8922 289.477 90.1687 289.455C90.43 289.434 90.6888 289.414 90.9722 289.537C91.5054 290.298 91.6985 290.355 91.9857 290.44C92.1736 290.495 92.4017 290.562 92.7917 290.846C93.3605 290.803 93.9383 290.594 94.5204 290.384C95.6297 289.983 96.7544 289.577 97.8611 290.297C98.4405 291.389 98.9651 291.171 99.5106 290.944C99.8347 290.81 100.166 290.672 100.521 290.804C100.635 290.641 100.779 290.513 100.941 290.43C101.103 290.347 101.28 290.311 101.455 290.326C101.631 290.341 101.801 290.405 101.952 290.515C102.104 290.624 102.232 290.776 102.326 290.956C102.715 291.429 102.771 291.815 102.831 292.223C102.871 292.5 102.914 292.787 103.063 293.119C103.688 294.006 105.896 294.209 107.042 293.66C108.069 291.877 109.125 292.637 110.125 293.66C111.625 294.403 112.736 293.922 113.993 292.604C114.461 290.911 114.77 291.07 115.132 291.256C115.344 291.365 115.575 291.484 115.868 291.243C116.263 291.526 116.583 291.118 116.895 290.72C117.171 290.368 117.441 290.024 117.75 290.17C118.28 289.635 118.879 289.613 119.519 289.59C120.254 289.563 121.045 289.534 121.854 288.726C121.984 288.685 122.115 288.643 122.245 288.601C123.636 288.152 125.055 287.695 126.306 288.861C127.481 288.582 128.682 288.831 129.842 289.071C130.368 289.18 130.886 289.287 131.389 289.342C132.072 290.473 132.162 290.41 132.678 290.049C132.786 289.973 132.914 289.884 133.069 289.79C133.768 289.937 134.437 290.244 135.042 290.694C136.25 289.005 137.785 289.503 139.056 290.779C139.927 290.375 140.81 290.513 141.685 290.65C142.037 290.705 142.388 290.759 142.736 290.779C143.776 291.201 144.869 290.799 145.98 290.391C146.626 290.153 147.279 289.913 147.931 289.833C149.708 290.939 151.472 291.522 153.083 290.745C153.339 291.268 153.551 291.362 153.757 291.453C153.953 291.541 154.144 291.626 154.361 292.08C154.458 291.235 155.16 292.925 155.215 293.068C155.845 293.723 156.459 293.392 157.059 293.068C157.412 292.877 157.76 292.689 158.104 292.705C158.558 292.536 158.98 292.61 159.388 292.682C160.105 292.807 160.776 292.925 161.493 291.708C162.498 291.143 163.411 290.362 164.188 289.402C165.267 289.215 166.367 289.405 167.361 289.951C167.793 290.076 168.245 290.056 168.669 289.892C169.092 289.728 169.471 289.427 169.764 289.021C169.828 288.863 169.884 288.716 169.935 288.585C170.271 287.71 170.356 287.486 170.972 288.515C171.338 288.12 171.707 288.781 172.075 289.44C172.448 290.107 172.821 290.773 173.188 290.339C173.786 290.79 174.46 290.719 175.138 290.648C175.592 290.6 176.049 290.552 176.486 290.66C176.892 290.538 177.302 290.3 177.714 290.061C178.805 289.429 179.916 288.785 181.035 290.213C181.764 290.444 182.493 290.323 183.219 290.202C184.028 290.067 184.834 289.932 185.632 290.289C185.949 289.587 186.453 289.944 186.936 290.285C187.383 290.601 187.812 290.904 188.056 290.339C188.514 290.844 188.535 290.899 188.925 291.91C188.966 292.017 189.012 292.135 189.063 292.266C189.59 294.522 190.667 294.488 191.319 292.722C192.156 292.781 192.992 292.604 193.764 292.207C194.534 290.953 195.317 291.359 196.096 291.762C196.461 291.951 196.826 292.14 197.188 292.156C198.233 291.99 199.291 292.323 200.139 293.085C201.49 293.794 202.353 292.993 203.317 292.098C203.502 291.926 203.692 291.75 203.889 291.581C204.335 290.751 204.549 290.74 204.866 290.724C205.043 290.715 205.251 290.705 205.549 290.551C205.823 290.01 206.076 289.997 206.332 289.985C206.587 289.972 206.844 289.959 207.125 289.419C207.53 289.603 207.985 289.405 208.453 289.203C209.101 288.923 209.772 288.632 210.361 289.334C211.02 289.039 211.507 289.279 212.016 289.531C212.281 289.661 212.551 289.794 212.854 289.858C213.084 289.76 213.275 289.871 213.448 289.972C213.752 290.149 214.003 290.295 214.312 289.224C214.688 288.423 214.887 288.665 215.094 288.916C215.323 289.195 215.562 289.485 216.063 288.379C216.861 289.446 217.687 289.087 218.505 288.732C218.912 288.555 219.317 288.379 219.715 288.379C220.063 287.854 220.441 288.051 220.813 288.245C221.087 288.388 221.358 288.53 221.611 288.379C222.186 288.278 222.254 288.408 222.376 288.645C222.458 288.803 222.564 289.008 222.861 289.224C223.757 290.432 224.625 291.531 225.785 289.816C226.529 290.729 227.274 290.352 228.014 289.977C228.123 289.922 228.232 289.867 228.34 289.816C228.705 289.691 229.07 289.728 229.427 289.764C229.749 289.796 230.065 289.828 230.368 289.74C230.784 290.165 231.193 289.734 231.623 289.282C231.824 289.069 232.03 288.852 232.243 288.717C232.601 288.068 232.974 288.198 233.346 288.327C233.651 288.433 233.955 288.538 234.25 288.21C234.969 288.502 235.574 287.844 236.204 287.16C236.597 286.734 236.999 286.297 237.444 286.073C238.215 284.624 239.041 285.068 239.857 285.506C240.269 285.727 240.678 285.946 241.076 285.921C241.496 285.479 241.863 285.479 242.226 285.48C242.675 285.481 243.117 285.481 243.639 284.645C244.008 286.114 244.374 285.519 244.734 284.934C244.943 284.594 245.15 284.258 245.354 284.332C245.496 284.376 245.642 284.082 245.792 283.78C246.024 283.314 246.265 282.828 246.514 283.547C246.674 283.23 246.848 283.468 247.025 283.711C247.24 284.004 247.458 284.304 247.66 283.623C248.806 283.8 249.174 283.623 250.042 282.144C250.145 282.068 250.248 281.991 250.353 281.913C252.123 280.593 254.161 279.073 256.292 280.716C256.975 280.537 257.655 280.603 258.336 280.669C258.839 280.718 259.343 280.767 259.847 280.716C260.784 280.225 261.723 280.402 262.666 280.58C263.345 280.708 264.025 280.837 264.708 280.716C265.786 280.216 266.86 280.382 267.94 280.549C268.481 280.633 269.024 280.716 269.569 280.716C269.789 280.796 269.992 280.883 270.186 280.966C270.838 281.246 271.379 281.478 272.049 281.198C272.356 281.366 272.664 281.233 272.971 281.1C273.358 280.932 273.745 280.765 274.132 281.198C275.354 280.708 277.062 280.302 278.097 282.567C278.227 282.81 278.33 283.064 278.419 283.285C278.64 283.831 278.781 284.18 279.062 283.699C279.312 283.167 279.563 283.699 279.813 284.544C279.96 284.971 280.078 285.339 280.166 285.615C280.328 286.122 280.393 286.323 280.361 286.022C281.098 286.919 282.58 286.846 284.09 286.773C285.255 286.716 286.437 286.658 287.306 287.044C287.574 287.1 287.842 287.164 288.109 287.228C289.304 287.512 290.503 287.797 291.785 287.382C292.338 286.921 292.719 287.305 293.125 287.713C293.366 287.955 293.616 288.207 293.917 288.295C294.37 288.41 294.877 288.297 295.392 288.183C296.163 288.011 296.953 287.836 297.611 288.413C298.501 288.477 298.799 288.753 299.065 288.999C299.288 289.205 299.489 289.391 300 289.41V0Z" fill="black"/>
</svg>
