<svg width="132" height="36" viewBox="0 0 132 36" fill="none" xmlns="http://www.w3.org/2000/svg">
<path d="M15.0301 0.844871C16.1133 0.844871 17.0999 1.11001 17.9897 1.6403C18.8872 2.1629 19.5991 2.86611 20.1252 3.74991C20.6591 4.63372 20.9261 5.61744 20.9261 6.70107C20.9261 7.86924 20.6127 8.92596 19.986 9.87126C19.367 10.8089 18.5468 11.5159 17.5254 11.9924L20.9261 16.3384H14.4498L11.5134 12.5573H6.08168V16.3384H0V0.844871H15.0301ZM6.08168 5.37536V8.01526H13.4981C13.8695 8.01526 14.1828 7.88845 14.4382 7.63483C14.7013 7.37353 14.8328 7.06228 14.8328 6.70107C14.8328 6.33218 14.7013 6.02092 14.4382 5.76731C14.1828 5.50601 13.8695 5.37536 13.4981 5.37536H6.08168Z" fill="white"/>
<path d="M40.3614 16.35H22.1048V0.856399H40.3614V4.82201H28.1865V6.80482H40.3614V10.39H28.1865V12.3728H40.3614V16.35Z" fill="white"/>
<path d="M64.1956 16.3269H57.3479L48.9682 6.86246V16.3269H42.8865V0.833344H51.2546L58.1023 9.04124V0.833344H64.1956V16.3269Z" fill="white"/>
<path d="M79.7777 11.4391C80.3038 11.4391 80.7487 11.3122 81.1124 11.0586C81.4838 10.7973 81.7662 10.4553 81.9596 10.0326C82.1531 9.60227 82.2498 9.12578 82.2498 8.60318C82.2498 8.08058 82.1531 7.60409 81.9596 7.17372C81.7662 6.74334 81.4838 6.40134 81.1124 6.14773C80.7487 5.89411 80.3038 5.76731 79.7777 5.76731H73.1157V11.4391H79.7777ZM80.9151 16.35H67.034V0.856399H80.9151C82.3542 0.856399 83.6309 1.20608 84.7451 1.90544C85.8671 2.59712 86.7453 3.53088 87.3797 4.70673C88.022 5.8749 88.3431 7.17372 88.3431 8.60318C88.3431 10.025 88.022 11.3238 87.3797 12.4996C86.7453 13.6678 85.8671 14.6016 84.7451 15.3009C83.6309 16.0003 82.3542 16.35 80.9151 16.35Z" fill="white"/>
<path d="M107.697 16.35H89.4405V0.856399H107.697V4.82201H95.5222V6.80482H107.697V10.39H95.5222V12.3728H107.697V16.35Z" fill="white"/>
<path d="M125.252 0.844871C126.336 0.844871 127.322 1.11001 128.212 1.6403C129.109 2.1629 129.821 2.86611 130.347 3.74991C130.881 4.63372 131.148 5.61744 131.148 6.70107C131.148 7.86924 130.835 8.92596 130.208 9.87126C129.589 10.8089 128.769 11.5159 127.748 11.9924L131.148 16.3384H124.672L121.736 12.5573H116.304V16.3384H110.222V0.844871H125.252ZM116.304 5.37536V8.01526H123.72C124.092 8.01526 124.405 7.88845 124.66 7.63483C124.923 7.37353 125.055 7.06228 125.055 6.70107C125.055 6.33218 124.923 6.02092 124.66 5.76731C124.405 5.50601 124.092 5.37536 123.72 5.37536H116.304Z" fill="white"/>
<path d="M13.8975 27.3878L11.7963 22.8671L9.6837 27.3878H13.8975ZM23.5812 33.7418H16.8437L15.6332 31.1228H7.94794L6.73748 33.7418H0L8.23343 18.4375H15.3478L23.5812 33.7418Z" fill="white"/>
<path d="M32.0151 33.7418H26.0313V23.2884H18.917V18.4375H39.1295V23.2884H32.0151V33.7418Z" fill="white"/>
<path d="M58.4005 33.719H40.4377V18.4147H46.4215V28.8681H58.4005V33.719Z" fill="white"/>
<path fill-rule="evenodd" clip-rule="evenodd" d="M119.345 25.9907L127.885 15.9799C127.544 17.3128 127.217 18.5481 126.896 19.7606C126.365 21.7702 125.85 23.7172 125.315 25.9416L119.345 25.9907ZM125.016 27.0904C124.599 28.75 123.533 32.989 122.893 33.8617C122.697 34.1323 122.159 34.2061 121.816 34.2307L121.694 34.7472H126.857L127.004 34.2307C126.686 34.2061 126.172 34.1323 126.123 33.8617C125.922 32.94 126.947 29.1009 127.442 27.2452C127.489 27.0704 127.531 26.9133 127.567 26.7778H130.209L130.405 25.9907H127.762L130.821 14.0121H128.692L118.219 26.2613L118.097 26.7778H125.095C125.072 26.8676 125.046 26.9725 125.016 27.0904ZM79.3303 33.3831H60.9897V30.9155C60.9897 30.2488 61.1677 29.6618 61.5237 29.1545C61.8869 28.64 62.37 28.1907 62.973 27.8066C63.576 27.4225 64.2517 27.0892 65 26.8065C65.7555 26.5167 66.5365 26.263 67.343 26.0456C68.1494 25.8282 68.934 25.6289 69.6968 25.4478C70.4669 25.2593 71.1644 25.0782 71.7892 24.9042C72.414 24.7303 72.9116 24.5455 73.2821 24.3499C73.6526 24.1469 73.8379 23.9187 73.8379 23.665C73.8379 23.3534 73.5945 23.0961 73.1078 22.8932C72.6283 22.6903 71.88 22.5889 70.8629 22.5889C70.1436 22.5889 69.4861 22.6396 68.8904 22.7411C68.3019 22.8353 67.8297 23.0056 67.4737 23.252C67.125 23.4911 66.9506 23.8353 66.9506 24.2846H61.2185C61.2185 23.0527 61.4474 22.0526 61.9051 21.2844C62.3628 20.5163 63.0057 19.9256 63.8339 19.5126C64.6694 19.0923 65.6611 18.806 66.809 18.6538C67.9641 18.4944 69.2355 18.4147 70.6231 18.4147C72.5048 18.4147 74.1103 18.5741 75.4398 18.893C76.7766 19.2118 77.7973 19.73 78.502 20.4474C79.214 21.1576 79.57 22.107 79.57 23.2954C79.57 23.9114 79.4392 24.4441 79.1777 24.8934C78.9162 25.3427 78.5638 25.7304 78.1206 26.0565C77.6847 26.3826 77.1907 26.6616 76.6386 26.8935C76.0864 27.1254 75.5125 27.3283 74.9168 27.5022C74.321 27.6689 73.7398 27.8211 73.1731 27.9588C72.4176 28.14 71.7565 28.3284 71.1898 28.524C70.6231 28.7125 70.2308 28.9407 70.0129 29.2089H79.3303V33.3831ZM89.3015 29.4698C90.3477 29.4698 91.1686 29.2886 91.7644 28.9262C92.5054 28.4769 92.8759 27.7051 92.8759 26.6109V25.5456C92.8759 24.4513 92.5054 23.6795 91.7644 23.2302C91.1686 22.8751 90.3477 22.6976 89.3015 22.6976C88.2626 22.6976 87.4453 22.8751 86.8496 23.2302C86.1013 23.6795 85.7271 24.4513 85.7271 25.5456V26.6109C85.7271 27.7051 86.1013 28.4769 86.8496 28.9262C87.4453 29.2886 88.2626 29.4698 89.3015 29.4698ZM89.3015 33.7418C85.8288 33.7418 83.297 32.9664 81.7059 31.4155C80.5798 30.3213 80.0168 28.8393 80.0168 26.9696V25.1869C80.0168 24.2738 80.1476 23.4694 80.4091 22.7737C80.8959 21.4547 81.7786 20.4438 83.0572 19.7409C84.6555 18.8567 86.737 18.4147 89.3015 18.4147C92.7742 18.4147 95.3097 19.1901 96.908 20.7409C98.0341 21.8352 98.5971 23.3172 98.5971 25.1869V26.9696C98.5971 27.8899 98.4664 28.6943 98.2048 29.3828C97.7181 30.7017 96.8354 31.7163 95.5567 32.4265C93.9511 33.3033 91.8661 33.7418 89.3015 33.7418ZM99.0439 33.3831H117.385V29.2089H108.067C108.285 28.9407 108.677 28.7125 109.244 28.524C109.811 28.3284 110.472 28.14 111.227 27.9588C111.794 27.8211 112.375 27.6689 112.971 27.5022C113.567 27.3283 114.141 27.1254 114.693 26.8935C115.245 26.6616 115.739 26.3826 116.175 26.0565C116.618 25.7304 116.97 25.3427 117.232 24.8934C117.493 24.4441 117.624 23.9114 117.624 23.2954C117.624 22.107 117.268 21.1576 116.556 20.4474C115.852 19.73 114.831 19.2118 113.494 18.893C112.165 18.5741 110.559 18.4147 108.677 18.4147C107.29 18.4147 106.018 18.4944 104.863 18.6538C103.715 18.806 102.724 19.0923 101.888 19.5126C101.06 19.9256 100.417 20.5163 99.9593 21.2844C99.5016 22.0526 99.2728 23.0527 99.2728 24.2846H105.005C105.005 23.8353 105.179 23.4911 105.528 23.252C105.884 23.0056 106.356 22.8353 106.945 22.7411C107.54 22.6396 108.198 22.5889 108.917 22.5889C109.934 22.5889 110.683 22.6903 111.162 22.8932C111.649 23.0961 111.892 23.3534 111.892 23.665C111.892 23.9187 111.707 24.1469 111.336 24.3499C110.966 24.5455 110.468 24.7303 109.843 24.9042C109.219 25.0782 108.521 25.2593 107.751 25.4478C106.988 25.6289 106.204 25.8282 105.397 26.0456C104.591 26.263 103.81 26.5167 103.054 26.8065C102.306 27.0892 101.63 27.4225 101.027 27.8066C100.424 28.1907 99.9412 28.64 99.5779 29.1545C99.2219 29.6618 99.0439 30.2488 99.0439 30.9155V33.3831Z" fill="black"/>
<path fill-rule="evenodd" clip-rule="evenodd" d="M125.335 25.8583C125.862 23.6685 126.371 21.7451 126.896 19.7606L126.896 19.7605C127.049 19.1846 127.202 18.6036 127.358 18.0094C127.485 17.5275 127.613 17.037 127.742 16.5336C127.79 16.3508 127.837 16.1663 127.885 15.9799L119.345 25.9908L125.315 25.9416C125.322 25.9138 125.329 25.886 125.335 25.8583ZM124.595 25.028C125.064 23.1099 125.521 21.381 125.988 19.6157L121.348 25.0547L124.595 25.028ZM118.219 26.2613L128.692 14.0122H130.821L127.762 25.9908H130.405L130.209 26.7779H127.566C127.555 26.8199 127.544 26.8641 127.531 26.9103C127.504 27.0127 127.474 27.1247 127.442 27.2452C126.952 29.0789 125.946 32.8492 126.116 33.8277C126.118 33.8394 126.12 33.8508 126.123 33.8617C126.132 33.9152 126.16 33.9609 126.201 34.0002C126.338 34.1311 126.619 34.1891 126.857 34.2166C126.909 34.2226 126.958 34.2271 127.004 34.2307L126.857 34.7472H121.694L121.816 34.2307C122.159 34.2061 122.697 34.1323 122.893 33.8617C122.901 33.8509 122.909 33.8395 122.917 33.8277C123.49 32.9854 124.385 29.5835 124.863 27.6974C124.921 27.4708 124.972 27.2661 125.016 27.0904C125.036 27.0135 125.054 26.9422 125.07 26.877C125.071 26.8723 125.072 26.8677 125.074 26.8631C125.081 26.8333 125.088 26.8049 125.095 26.7779H118.097L118.219 26.2613ZM123.919 27.6974H116.939L117.262 26.3335C117.094 26.4988 116.912 26.6531 116.718 26.7964C116.217 27.1705 115.658 27.4846 115.045 27.7419C114.559 27.946 114.059 28.1284 113.543 28.2894H118.299V34.3026H98.1291V31.4152C97.5727 32.1467 96.8597 32.7533 95.999 33.2313L95.9962 33.2329L95.9933 33.2344C94.2105 34.2081 91.9604 34.6613 89.3014 34.6613C85.7217 34.6613 82.9064 33.8661 81.0698 32.0763C80.7563 31.7717 80.4817 31.4429 80.2449 31.0914V34.3026H60.0749V30.9155C60.0749 30.0738 60.3031 29.2985 60.7761 28.6245L60.7769 28.6234L60.7776 28.6224C61.2185 27.9979 61.7936 27.4692 62.4834 27.0299C63.1446 26.6088 63.8767 26.2487 64.6759 25.9466C65.4074 25.6661 66.1605 25.4187 66.9353 25.2041H60.3037V24.2846C60.3037 22.9463 60.5513 21.7668 61.1203 20.812C61.6712 19.8873 62.4477 19.1778 63.4259 18.6896C64.3702 18.2148 65.4629 17.905 66.6869 17.7425C67.8895 17.5767 69.2023 17.4952 70.623 17.4952C72.5512 17.4952 74.232 17.6581 75.6514 17.9984C77.0935 18.3425 78.2881 18.9225 79.1497 19.7981C79.581 20.2293 79.9026 20.7243 80.122 21.2725C80.7179 20.3005 81.5551 19.5189 82.617 18.9348C84.394 17.9521 86.6422 17.4952 89.3014 17.4952C92.8821 17.4952 95.6999 18.2908 97.5432 20.0793L97.5437 20.0798C98.044 20.566 98.4454 21.1137 98.7519 21.717C98.8659 21.3968 99.0061 21.0946 99.1745 20.812C99.7255 19.8873 100.502 19.1778 101.48 18.6896C102.424 18.2148 103.517 17.905 104.741 17.7425C105.944 17.5767 107.257 17.4952 108.677 17.4952C110.606 17.4952 112.287 17.6581 113.706 17.9985C115.148 18.3426 116.342 18.9226 117.204 19.7981C118.117 20.7112 118.539 21.9108 118.539 23.2954C118.539 23.8094 118.464 24.2998 118.301 24.7554L128.272 13.0927H132L128.941 25.0713H131.576L130.923 27.6974H128.268C128.022 28.6211 127.681 29.915 127.414 31.1059C127.269 31.7498 127.15 32.3482 127.079 32.8332C127.053 33.0158 127.034 33.175 127.023 33.3096C127.04 33.3111 127.057 33.3126 127.074 33.3139L128.191 33.4003L127.547 35.6667H120.536L121.082 33.3615L121.751 33.3135C121.9 33.3028 122.052 33.2834 122.169 33.2513C122.182 33.2478 122.193 33.2444 122.203 33.2411C122.284 33.0983 122.412 32.8107 122.576 32.3562C122.763 31.8365 122.963 31.194 123.16 30.5141C123.443 29.537 123.712 28.5076 123.919 27.6974ZM126.722 33.2559C126.722 33.2559 126.723 33.2564 126.725 33.2574C126.723 33.2564 126.722 33.2559 126.722 33.2559ZM116.556 20.4474C115.852 19.73 114.831 19.2118 113.494 18.893C112.165 18.5741 110.559 18.4147 108.677 18.4147C107.29 18.4147 106.018 18.4944 104.863 18.6538C103.715 18.806 102.724 19.0923 101.888 19.5126C101.06 19.9257 100.417 20.5163 99.9593 21.2844C99.625 21.8454 99.4128 22.53 99.3227 23.3382C99.3217 23.3472 99.3207 23.3561 99.3197 23.3651C99.2884 23.6558 99.2727 23.9623 99.2727 24.2846H105.005C105.005 23.8353 105.179 23.4911 105.528 23.252C105.884 23.0056 106.356 22.8353 106.945 22.7411C107.54 22.6396 108.198 22.5889 108.917 22.5889C109.934 22.5889 110.682 22.6903 111.162 22.8932C111.649 23.0962 111.892 23.3534 111.892 23.665C111.892 23.9187 111.707 24.1469 111.336 24.3499C110.966 24.5455 110.468 24.7303 109.843 24.9042C109.219 25.0782 108.521 25.2593 107.751 25.4478C106.988 25.6289 106.204 25.8282 105.397 26.0456C104.591 26.263 103.81 26.5167 103.054 26.8065C102.306 27.0892 101.63 27.4225 101.027 27.8066C100.424 28.1907 99.9411 28.64 99.5778 29.1545C99.2219 29.6618 99.0439 30.2488 99.0439 30.9155V33.3831H117.384V29.2089H108.067C108.285 28.9407 108.677 28.7125 109.244 28.5241C109.474 28.4446 109.72 28.3664 109.981 28.2894C110.363 28.1766 110.778 28.0664 111.227 27.9588C111.794 27.8211 112.375 27.6689 112.971 27.5022C113.567 27.3283 114.141 27.1254 114.693 26.8935C115.245 26.6616 115.739 26.3826 116.175 26.0565C116.618 25.7304 116.97 25.3427 117.232 24.8934C117.493 24.4441 117.624 23.9114 117.624 23.2954C117.624 22.107 117.268 21.1576 116.556 20.4474ZM102.73 25.9467C103.461 25.6662 104.215 25.4187 104.99 25.2041H99.5118V26.9696C99.5118 27.2788 99.4983 27.5798 99.4706 27.8723C99.7864 27.5615 100.143 27.2811 100.538 27.0299C101.199 26.6088 101.931 26.2487 102.73 25.9467ZM98.2047 29.3828C98.4663 28.6944 98.5971 27.89 98.5971 26.9696V25.1869C98.5971 24.8754 98.5814 24.5746 98.5502 24.2846C98.5169 23.9762 98.466 23.6799 98.3974 23.3958C98.1433 22.3439 97.6468 21.459 96.9079 20.7409C95.3096 19.1901 92.7741 18.4147 89.3014 18.4147C86.7369 18.4147 84.6555 18.8567 83.0572 19.7409C81.8163 20.423 80.9483 21.3953 80.4532 22.6576C80.4382 22.696 80.4234 22.7347 80.409 22.7737C80.346 22.9413 80.2906 23.1152 80.2428 23.2954C80.0921 23.8633 80.0167 24.4938 80.0167 25.1869V26.9696C80.0167 27.4334 80.0514 27.8733 80.1207 28.2894C80.154 28.4898 80.1955 28.6847 80.2449 28.874C80.5067 29.8763 80.9937 30.7235 81.7059 31.4155C83.2969 32.9664 85.8288 33.7418 89.3014 33.7418C91.866 33.7418 93.9511 33.3034 95.5566 32.4265C96.8353 31.7163 97.718 30.7017 98.2047 29.3828ZM79.1949 28.2894C79.1327 27.8663 79.102 27.426 79.102 26.9696V26.4344C78.9643 26.562 78.8181 26.6826 78.6638 26.7963C78.1632 27.1704 77.604 27.4845 76.9911 27.7419C76.5052 27.946 76.0045 28.1284 75.4892 28.2894H79.1949ZM70.0128 29.2089C70.2307 28.9407 70.623 28.7125 71.1897 28.5241C71.4197 28.4446 71.6653 28.3664 71.9264 28.2894C72.3086 28.1766 72.7242 28.0664 73.1731 27.9588C73.7397 27.8211 74.3209 27.6689 74.9167 27.5022C75.5124 27.3283 76.0864 27.1254 76.6385 26.8935C77.1906 26.6616 77.6847 26.3826 78.1206 26.0565C78.5231 25.7603 78.8507 25.4132 79.1034 25.0153C79.1289 24.9752 79.1537 24.9346 79.1776 24.8934C79.4392 24.4441 79.5699 23.9114 79.5699 23.2954C79.5699 23.0337 79.5527 22.7835 79.5181 22.5449C79.3958 21.7003 79.0571 21.0012 78.502 20.4474C77.7973 19.73 76.7765 19.2118 75.4398 18.893C74.1103 18.5741 72.5047 18.4147 70.623 18.4147C69.2354 18.4147 67.964 18.4944 66.8089 18.6538C65.661 18.806 64.6694 19.0923 63.8339 19.5126C63.0057 19.9257 62.3627 20.5163 61.905 21.2844C61.5671 21.8516 61.3539 22.5452 61.2655 23.3651C61.2341 23.6558 61.2185 23.9623 61.2185 24.2846H66.9506C66.9506 23.8353 67.1249 23.4911 67.4737 23.252C67.8296 23.0056 68.3019 22.8353 68.8903 22.7411C69.4861 22.6396 70.1436 22.5889 70.8628 22.5889C71.8799 22.5889 72.6282 22.6903 73.1077 22.8932C73.5944 23.0962 73.8378 23.3534 73.8378 23.665C73.8378 23.9187 73.6526 24.1469 73.282 24.3499C72.9115 24.5455 72.4139 24.7303 71.7891 24.9042C71.1643 25.0782 70.4668 25.2593 69.6968 25.4478C68.9339 25.6289 68.1493 25.8282 67.3429 26.0456C66.5365 26.263 65.7555 26.5167 64.9999 26.8065C64.2516 27.0892 63.576 27.4225 62.973 27.8066C62.37 28.1907 61.8868 28.64 61.5236 29.1545C61.1676 29.6618 60.9896 30.2488 60.9896 30.9155V33.3831H79.3302V29.2089H70.0128ZM69.4835 24.5536C70.245 24.3672 70.932 24.1887 71.545 24.0181C71.9618 23.9021 72.2978 23.7864 72.5615 23.6747C72.2232 23.5782 71.6757 23.5084 70.8628 23.5084C70.1854 23.5084 69.5799 23.5562 69.0431 23.6476L69.0387 23.6484L69.0342 23.6491C68.5323 23.7295 68.202 23.8642 67.9924 24.0093L67.9908 24.0104L67.9892 24.0115C67.9072 24.0678 67.8653 24.1181 67.8653 24.2846V24.9564C68.4147 24.8136 68.9541 24.6794 69.4835 24.5536ZM105.92 24.9564C106.469 24.8136 107.008 24.6793 107.538 24.5536C108.299 24.3672 108.986 24.1887 109.599 24.0181C110.016 23.9021 110.352 23.7864 110.616 23.6747C110.277 23.5782 109.73 23.5084 108.917 23.5084C108.24 23.5084 107.634 23.5562 107.097 23.6476L107.093 23.6484L107.088 23.6491C106.587 23.7295 106.256 23.8642 106.047 24.0093L106.045 24.0104L106.043 24.0115C105.961 24.0678 105.92 24.1181 105.92 24.2846V24.9564ZM91.2908 28.1396L91.2919 28.1389C91.6856 27.9001 91.9611 27.4787 91.9611 26.6109V25.5456C91.9611 24.6799 91.687 24.2584 91.2947 24.0193C90.8944 23.7818 90.2586 23.6171 89.3014 23.6171C88.3516 23.6171 87.7183 23.7818 87.3174 24.0203C86.9174 24.261 86.6418 24.6826 86.6418 25.5456V26.6109C86.6418 27.4748 86.918 27.8963 87.3186 28.1369L87.3208 28.1382L87.323 28.1396C87.7222 28.3824 88.353 28.5503 89.3014 28.5503C90.2586 28.5503 90.8924 28.3819 91.2908 28.1396ZM86.8495 23.2302C87.4452 22.8751 88.2625 22.6976 89.3014 22.6976C90.3476 22.6976 91.1686 22.8751 91.7643 23.2302C92.5053 23.6795 92.8758 24.4513 92.8758 25.5456V26.6109C92.8758 27.7052 92.5053 28.4769 91.7643 28.9263C91.1686 29.2886 90.3476 29.4698 89.3014 29.4698C88.2625 29.4698 87.4452 29.2886 86.8495 28.9263C86.1012 28.4769 85.7271 27.7052 85.7271 26.6109V25.5456C85.7271 24.4513 86.1012 23.6795 86.8495 23.2302Z" fill="white"/>
</svg>
