<svg width="132" height="35" viewBox="0 0 132 35" fill="none" xmlns="http://www.w3.org/2000/svg">
<path d="M15.0301 0.0115279C16.1133 0.0115279 17.0999 0.276671 17.9897 0.806956C18.8872 1.32956 19.5991 2.03276 20.1252 2.91657C20.6591 3.80038 20.9261 4.7841 20.9261 5.86773C20.9261 7.03589 20.6127 8.09262 19.986 9.03791C19.367 9.97552 18.5468 10.6826 17.5254 11.1591L20.9261 15.5051H14.4498L11.5134 11.7239H6.08168V15.5051H0V0.0115279H15.0301ZM6.08168 4.54201V7.18191H13.4981C13.8695 7.18191 14.1828 7.0551 14.4382 6.80149C14.7013 6.54019 14.8328 6.22894 14.8328 5.86773C14.8328 5.49883 14.7013 5.18758 14.4382 4.93396C14.1828 4.67266 13.8695 4.54201 13.4981 4.54201H6.08168Z" fill="black"/>
<path d="M40.3614 15.5166H22.1048V0.0230559H40.3614V3.98867H28.1865V5.97148H40.3614V9.55667H28.1865V11.5395H40.3614V15.5166Z" fill="black"/>
<path d="M64.1956 15.4936H57.3479L48.9682 6.02912V15.4936H42.8865V0H51.2546L58.1023 8.2079V0H64.1956V15.4936Z" fill="black"/>
<path d="M79.7777 10.6057C80.3038 10.6057 80.7487 10.4789 81.1124 10.2253C81.4838 9.96399 81.7662 9.622 81.9596 9.1993C82.1531 8.76893 82.2498 8.29244 82.2498 7.76984C82.2498 7.24724 82.1531 6.77075 81.9596 6.34037C81.7662 5.91 81.4838 5.568 81.1124 5.31438C80.7487 5.06077 80.3038 4.93396 79.7777 4.93396H73.1157V10.6057H79.7777ZM80.9151 15.5166H67.034V0.0230559H80.9151C82.3542 0.0230559 83.6309 0.372737 84.7451 1.0721C85.8671 1.76378 86.7453 2.69754 87.3797 3.87339C88.022 5.04156 88.3431 6.34037 88.3431 7.76984C88.3431 9.19162 88.022 10.4904 87.3797 11.6663C86.7453 12.8345 85.8671 13.7682 84.7451 14.4676C83.6309 15.1669 82.3542 15.5166 80.9151 15.5166Z" fill="black"/>
<path d="M107.697 15.5166H89.4405V0.0230559H107.697V3.98867H95.5222V5.97148H107.697V9.55667H95.5222V11.5395H107.697V15.5166Z" fill="black"/>
<path d="M125.252 0.0115279C126.336 0.0115279 127.322 0.276671 128.212 0.806956C129.109 1.32956 129.821 2.03276 130.347 2.91657C130.881 3.80038 131.148 4.7841 131.148 5.86773C131.148 7.03589 130.835 8.09262 130.208 9.03791C129.589 9.97552 128.769 10.6826 127.748 11.1591L131.148 15.5051H124.672L121.736 11.7239H116.304V15.5051H110.222V0.0115279H125.252ZM116.304 4.54201V7.18191H123.72C124.092 7.18191 124.405 7.0551 124.66 6.80149C124.923 6.54019 125.055 6.22894 125.055 5.86773C125.055 5.49883 124.923 5.18758 124.66 4.93396C124.405 4.67266 124.092 4.54201 123.72 4.54201H116.304Z" fill="black"/>
<path d="M13.8975 26.5544L11.7963 22.0337L9.6837 26.5544H13.8975ZM23.5812 32.9085H16.8437L15.6332 30.2894H7.94794L6.73748 32.9085H0L8.23343 17.6041H15.3478L23.5812 32.9085Z" fill="black"/>
<path d="M32.0151 32.9085H26.0313V22.4551H18.917V17.6041H39.1295V22.4551H32.0151V32.9085Z" fill="black"/>
<path d="M58.4005 32.8857H40.4377V17.5814H46.4215V28.0348H58.4005V32.8857Z" fill="black"/>
<path fill-rule="evenodd" clip-rule="evenodd" d="M119.345 25.1574L127.885 15.1465C127.544 16.4794 127.217 17.7147 126.896 18.9273C126.365 20.9369 125.85 22.8838 125.315 25.1082L119.345 25.1574ZM125.016 26.257C124.599 27.9166 123.533 32.1557 122.893 33.0284C122.697 33.2989 122.159 33.3727 121.816 33.3973L121.694 33.9138H126.857L127.004 33.3973C126.686 33.3727 126.172 33.2989 126.123 33.0284C125.922 32.1067 126.947 28.2675 127.442 26.4118C127.489 26.2371 127.531 26.08 127.567 25.9445H130.209L130.405 25.1574H127.762L130.821 13.1788H128.692L118.219 25.428L118.097 25.9445H125.095C125.072 26.0342 125.046 26.1391 125.016 26.257ZM79.3303 32.5497H60.9897V30.0822C60.9897 29.4155 61.1677 28.8285 61.5237 28.3212C61.8869 27.8067 62.37 27.3573 62.973 26.9733C63.576 26.5892 64.2517 26.2558 65 25.9732C65.7555 25.6833 66.5365 25.4297 67.343 25.2123C68.1494 24.9949 68.934 24.7956 69.6968 24.6144C70.4669 24.426 71.1644 24.2448 71.7892 24.0709C72.414 23.897 72.9116 23.7122 73.2821 23.5165C73.6526 23.3136 73.8379 23.0853 73.8379 22.8317C73.8379 22.5201 73.5945 22.2628 73.1078 22.0599C72.6283 21.857 71.88 21.7555 70.8629 21.7555C70.1436 21.7555 69.4861 21.8063 68.8904 21.9077C68.3019 22.0019 67.8297 22.1722 67.4737 22.4186C67.125 22.6578 66.9506 23.002 66.9506 23.4513H61.2185C61.2185 22.2193 61.4474 21.2193 61.9051 20.4511C62.3628 19.6829 63.0057 19.0923 63.8339 18.6792C64.6694 18.2589 65.6611 17.9727 66.809 17.8205C67.9641 17.661 69.2355 17.5813 70.6231 17.5813C72.5048 17.5813 74.1103 17.7408 75.4398 18.0596C76.7766 18.3785 77.7973 18.8966 78.502 19.6141C79.214 20.3243 79.57 21.2736 79.57 22.4621C79.57 23.0781 79.4392 23.6107 79.1777 24.06C78.9162 24.5093 78.5638 24.897 78.1206 25.2231C77.6847 25.5493 77.1907 25.8283 76.6386 26.0602C76.0864 26.2921 75.5125 26.495 74.9168 26.6689C74.321 26.8356 73.7398 26.9878 73.1731 27.1254C72.4176 27.3066 71.7565 27.495 71.1898 27.6907C70.6231 27.8791 70.2308 28.1074 70.0129 28.3755H79.3303V32.5497ZM89.3015 28.6364C90.3477 28.6364 91.1686 28.4552 91.7644 28.0929C92.5054 27.6436 92.8759 26.8718 92.8759 25.7775V24.7122C92.8759 23.618 92.5054 22.8462 91.7644 22.3969C91.1686 22.0418 90.3477 21.8642 89.3015 21.8642C88.2626 21.8642 87.4453 22.0418 86.8496 22.3969C86.1013 22.8462 85.7271 23.618 85.7271 24.7122V25.7775C85.7271 26.8718 86.1013 27.6436 86.8496 28.0929C87.4453 28.4552 88.2626 28.6364 89.3015 28.6364ZM89.3015 32.9084C85.8288 32.9084 83.297 32.133 81.7059 30.5822C80.5798 29.4879 80.0168 28.0059 80.0168 26.1362V24.3535C80.0168 23.4404 80.1476 22.636 80.4091 21.9403C80.8959 20.6214 81.7786 19.6105 83.0572 18.9075C84.6555 18.0234 86.737 17.5813 89.3015 17.5813C92.7742 17.5813 95.3097 18.3567 96.908 19.9076C98.0341 21.0018 98.5971 22.4838 98.5971 24.3535V26.1362C98.5971 27.0566 98.4664 27.861 98.2048 28.5495C97.7181 29.8684 96.8354 30.8829 95.5567 31.5931C93.9511 32.47 91.8661 32.9084 89.3015 32.9084ZM99.0439 32.5497H117.385V28.3755H108.067C108.285 28.1074 108.677 27.8791 109.244 27.6907C109.811 27.495 110.472 27.3066 111.227 27.1254C111.794 26.9878 112.375 26.8356 112.971 26.6689C113.567 26.495 114.141 26.2921 114.693 26.0602C115.245 25.8283 115.739 25.5493 116.175 25.2231C116.618 24.897 116.97 24.5093 117.232 24.06C117.493 23.6107 117.624 23.0781 117.624 22.4621C117.624 21.2736 117.268 20.3243 116.556 19.6141C115.852 18.8966 114.831 18.3785 113.494 18.0596C112.165 17.7408 110.559 17.5813 108.677 17.5813C107.29 17.5813 106.018 17.661 104.863 17.8205C103.715 17.9727 102.724 18.2589 101.888 18.6792C101.06 19.0923 100.417 19.6829 99.9593 20.4511C99.5016 21.2193 99.2728 22.2193 99.2728 23.4513H105.005C105.005 23.002 105.179 22.6578 105.528 22.4186C105.884 22.1722 106.356 22.0019 106.945 21.9077C107.54 21.8063 108.198 21.7555 108.917 21.7555C109.934 21.7555 110.683 21.857 111.162 22.0599C111.649 22.2628 111.892 22.5201 111.892 22.8317C111.892 23.0853 111.707 23.3136 111.336 23.5165C110.966 23.7122 110.468 23.897 109.843 24.0709C109.219 24.2448 108.521 24.426 107.751 24.6144C106.988 24.7956 106.204 24.9949 105.397 25.2123C104.591 25.4297 103.81 25.6833 103.054 25.9732C102.306 26.2558 101.63 26.5892 101.027 26.9733C100.424 27.3573 99.9412 27.8067 99.5779 28.3212C99.2219 28.8285 99.0439 29.4155 99.0439 30.0822V32.5497Z" fill="white"/>
<path fill-rule="evenodd" clip-rule="evenodd" d="M125.335 25.025C125.862 22.8352 126.371 20.9118 126.896 18.9273L126.896 18.9272C127.049 18.3513 127.202 17.7702 127.358 17.1761C127.485 16.6942 127.613 16.2037 127.742 15.7002C127.79 15.5174 127.837 15.333 127.885 15.1466L119.345 25.1574L125.315 25.1082C125.322 25.0804 125.329 25.0527 125.335 25.025ZM124.595 24.1946C125.064 22.2766 125.521 20.5477 125.988 18.7823L121.348 24.2214L124.595 24.1946ZM118.219 25.428L128.692 13.1788H130.821L127.762 25.1574H130.405L130.209 25.9445H127.566C127.555 25.9866 127.544 26.0308 127.531 26.0769C127.504 26.1793 127.474 26.2914 127.442 26.4118C126.952 28.2455 125.946 32.0159 126.116 32.9943C126.118 33.0061 126.12 33.0174 126.123 33.0284C126.132 33.0818 126.16 33.1276 126.201 33.1668C126.338 33.2977 126.619 33.3558 126.857 33.3833C126.909 33.3893 126.958 33.3938 127.004 33.3973L126.857 33.9138H121.694L121.816 33.3973C122.159 33.3727 122.697 33.2989 122.893 33.0284C122.901 33.0175 122.909 33.0062 122.917 32.9943C123.49 32.1521 124.385 28.7502 124.863 26.864C124.921 26.6375 124.972 26.4328 125.016 26.257C125.036 26.1802 125.054 26.1088 125.07 26.0436C125.071 26.039 125.072 26.0343 125.074 26.0297C125.081 26 125.088 25.9716 125.095 25.9445H118.097L118.219 25.428ZM123.919 26.864H116.939L117.262 25.5001C117.094 25.6655 116.912 25.8198 116.718 25.9631C116.217 26.3371 115.658 26.6512 115.045 26.9086C114.559 27.1127 114.059 27.2951 113.543 27.456H118.299V33.4692H98.1291V30.5819C97.5727 31.3134 96.8597 31.9199 95.999 32.398L95.9962 32.3995L95.9933 32.4011C94.2105 33.3748 91.9604 33.828 89.3014 33.828C85.7217 33.828 82.9064 33.0327 81.0698 31.243C80.7563 30.9384 80.4817 30.6096 80.2449 30.2581V33.4692H60.0749V30.0822C60.0749 29.2405 60.3031 28.4652 60.7761 27.7912L60.7769 27.7901L60.7776 27.789C61.2185 27.1645 61.7936 26.6359 62.4834 26.1966C63.1446 25.7754 63.8767 25.4153 64.6759 25.1133C65.4074 24.8328 66.1605 24.5853 66.9353 24.3708H60.3037V23.4513C60.3037 22.1129 60.5513 20.9335 61.1203 19.9786C61.6712 19.0539 62.4477 18.3444 63.4259 17.8563C64.3702 17.3814 65.4629 17.0717 66.6869 16.9092C67.8895 16.7434 69.2023 16.6618 70.623 16.6618C72.5512 16.6618 74.232 16.8247 75.6514 17.1651C77.0935 17.5091 78.2881 18.0892 79.1497 18.9648C79.581 19.3959 79.9026 19.891 80.122 20.4392C80.7179 19.4671 81.5551 18.6855 82.617 18.1015C84.394 17.1187 86.6422 16.6618 89.3014 16.6618C92.8821 16.6618 95.6999 17.4574 97.5432 19.246L97.5437 19.2465C98.044 19.7327 98.4454 20.2803 98.7519 20.8837C98.8659 20.5635 99.0061 20.2612 99.1745 19.9786C99.7255 19.0539 100.502 18.3444 101.48 17.8563C102.424 17.3814 103.517 17.0717 104.741 16.9092C105.944 16.7434 107.257 16.6618 108.677 16.6618C110.606 16.6618 112.287 16.8248 113.706 17.1652C115.148 17.5092 116.342 18.0892 117.204 18.9648C118.117 19.8778 118.539 21.0774 118.539 22.4621C118.539 22.976 118.464 23.4664 118.301 23.922L128.272 12.2593H132L128.941 24.2379H131.576L130.923 26.864H128.268C128.022 27.7878 127.681 29.0817 127.414 30.2725C127.269 30.9165 127.15 31.5149 127.079 31.9999C127.053 32.1825 127.034 32.3417 127.023 32.4762C127.04 32.4778 127.057 32.4792 127.074 32.4805L128.191 32.5669L127.547 34.8333H120.536L121.082 32.5282L121.751 32.4801C121.9 32.4694 122.052 32.4501 122.169 32.418C122.182 32.4145 122.193 32.4111 122.203 32.4078C122.284 32.265 122.412 31.9774 122.576 31.5229C122.763 31.0032 122.963 30.3607 123.16 29.6807C123.443 28.7037 123.712 27.6743 123.919 26.864ZM126.722 32.4226C126.722 32.4226 126.723 32.423 126.725 32.424C126.723 32.4231 126.722 32.4226 126.722 32.4226ZM116.556 19.6141C115.852 18.8966 114.831 18.3785 113.494 18.0596C112.165 17.7408 110.559 17.5813 108.677 17.5813C107.29 17.5813 106.018 17.6611 104.863 17.8205C103.715 17.9727 102.724 18.2589 101.888 18.6792C101.06 19.0923 100.417 19.6829 99.9593 20.4511C99.625 21.012 99.4128 21.6966 99.3227 22.5049C99.3217 22.5138 99.3207 22.5228 99.3197 22.5318C99.2884 22.8224 99.2727 23.1289 99.2727 23.4513H105.005C105.005 23.002 105.179 22.6578 105.528 22.4186C105.884 22.1722 106.356 22.0019 106.945 21.9077C107.54 21.8063 108.198 21.7555 108.917 21.7555C109.934 21.7555 110.682 21.857 111.162 22.0599C111.649 22.2628 111.892 22.5201 111.892 22.8317C111.892 23.0853 111.707 23.3136 111.336 23.5165C110.966 23.7122 110.468 23.897 109.843 24.0709C109.219 24.2448 108.521 24.426 107.751 24.6144C106.988 24.7956 106.204 24.9949 105.397 25.2123C104.591 25.4297 103.81 25.6833 103.054 25.9732C102.306 26.2558 101.63 26.5892 101.027 26.9733C100.424 27.3574 99.9411 27.8067 99.5778 28.3212C99.2219 28.8285 99.0439 29.4155 99.0439 30.0822V32.5497H117.384V28.3755H108.067C108.285 28.1074 108.677 27.8791 109.244 27.6907C109.474 27.6113 109.72 27.5331 109.981 27.456C110.363 27.3433 110.778 27.2331 111.227 27.1255C111.794 26.9878 112.375 26.8356 112.971 26.6689C113.567 26.495 114.141 26.2921 114.693 26.0602C115.245 25.8283 115.739 25.5493 116.175 25.2232C116.618 24.897 116.97 24.5093 117.232 24.06C117.493 23.6107 117.624 23.0781 117.624 22.4621C117.624 21.2736 117.268 20.3243 116.556 19.6141ZM102.73 25.1134C103.461 24.8328 104.215 24.5854 104.99 24.3708H99.5118V26.1363C99.5118 26.4454 99.4983 26.7465 99.4706 27.0389C99.7864 26.7281 100.143 26.4478 100.538 26.1966C101.199 25.7755 101.931 25.4154 102.73 25.1134ZM98.2047 28.5495C98.4663 27.861 98.5971 27.0566 98.5971 26.1363V24.3535C98.5971 24.042 98.5814 23.7413 98.5502 23.4513C98.5169 23.1428 98.466 22.8466 98.3974 22.5625C98.1433 21.5106 97.6468 20.6256 96.9079 19.9076C95.3096 18.3568 92.7741 17.5813 89.3014 17.5813C86.7369 17.5813 84.6555 18.0234 83.0572 18.9075C81.8163 19.5897 80.9483 20.5619 80.4532 21.8242C80.4382 21.8627 80.4234 21.9014 80.409 21.9403C80.346 22.1079 80.2906 22.2819 80.2428 22.4621C80.0921 23.0299 80.0167 23.6604 80.0167 24.3535V26.1363C80.0167 26.6 80.0514 27.04 80.1207 27.456C80.154 27.6565 80.1955 27.8513 80.2449 28.0407C80.5067 29.0429 80.9937 29.8901 81.7059 30.5822C83.2969 32.133 85.8288 32.9084 89.3014 32.9084C91.866 32.9084 93.9511 32.47 95.5566 31.5931C96.8353 30.883 97.718 29.8684 98.2047 28.5495ZM79.1949 27.456C79.1327 27.0329 79.102 26.5926 79.102 26.1363V25.6011C78.9643 25.7286 78.8181 25.8492 78.6638 25.9629C78.1632 26.3371 77.604 26.6512 76.9911 26.9086C76.5052 27.1127 76.0045 27.2951 75.4892 27.456H79.1949ZM70.0128 28.3755C70.2307 28.1074 70.623 27.8791 71.1897 27.6907C71.4197 27.6113 71.6653 27.5331 71.9264 27.456C72.3086 27.3433 72.7242 27.2331 73.1731 27.1255C73.7397 26.9878 74.3209 26.8356 74.9167 26.6689C75.5124 26.495 76.0864 26.2921 76.6385 26.0602C77.1906 25.8283 77.6847 25.5493 78.1206 25.2232C78.5231 24.9269 78.8507 24.5799 79.1034 24.182C79.1289 24.1419 79.1537 24.1012 79.1776 24.06C79.4392 23.6107 79.5699 23.0781 79.5699 22.4621C79.5699 22.2003 79.5527 21.9501 79.5181 21.7115C79.3958 20.867 79.0571 20.1678 78.502 19.6141C77.7973 18.8966 76.7765 18.3785 75.4398 18.0596C74.1103 17.7408 72.5047 17.5813 70.623 17.5813C69.2354 17.5813 67.964 17.6611 66.8089 17.8205C65.661 17.9727 64.6694 18.2589 63.8339 18.6792C63.0057 19.0923 62.3627 19.6829 61.905 20.4511C61.5671 21.0182 61.3539 21.7118 61.2655 22.5318C61.2341 22.8224 61.2185 23.1289 61.2185 23.4513H66.9506C66.9506 23.002 67.1249 22.6578 67.4737 22.4186C67.8296 22.1722 68.3019 22.0019 68.8903 21.9077C69.4861 21.8063 70.1436 21.7555 70.8628 21.7555C71.8799 21.7555 72.6282 21.857 73.1077 22.0599C73.5944 22.2628 73.8378 22.5201 73.8378 22.8317C73.8378 23.0853 73.6526 23.3136 73.282 23.5165C72.9115 23.7122 72.4139 23.897 71.7891 24.0709C71.1643 24.2448 70.4668 24.426 69.6968 24.6144C68.9339 24.7956 68.1493 24.9949 67.3429 25.2123C66.5365 25.4297 65.7555 25.6833 64.9999 25.9732C64.2516 26.2558 63.576 26.5892 62.973 26.9733C62.37 27.3574 61.8868 27.8067 61.5236 28.3212C61.1676 28.8285 60.9896 29.4155 60.9896 30.0822V32.5497H79.3302V28.3755H70.0128ZM69.4835 23.7202C70.245 23.5339 70.932 23.3554 71.545 23.1847C71.9618 23.0687 72.2978 22.9531 72.5615 22.8413C72.2232 22.7449 71.6757 22.675 70.8628 22.675C70.1854 22.675 69.5799 22.7229 69.0431 22.8143L69.0387 22.8151L69.0342 22.8158C68.5323 22.8961 68.202 23.0309 67.9924 23.176L67.9908 23.1771L67.9892 23.1782C67.9072 23.2344 67.8653 23.2847 67.8653 23.4513V24.1231C68.4147 23.9803 68.9541 23.846 69.4835 23.7202ZM105.92 24.1231C106.469 23.9803 107.008 23.846 107.538 23.7202C108.299 23.5339 108.986 23.3554 109.599 23.1847C110.016 23.0687 110.352 22.9531 110.616 22.8413C110.277 22.7449 109.73 22.675 108.917 22.675C108.24 22.675 107.634 22.7229 107.097 22.8143L107.093 22.8151L107.088 22.8158C106.587 22.8961 106.256 23.0309 106.047 23.176L106.045 23.1771L106.043 23.1782C105.961 23.2344 105.92 23.2847 105.92 23.4513V24.1231ZM91.2908 27.3062L91.2919 27.3055C91.6856 27.0668 91.9611 26.6454 91.9611 25.7775V24.7123C91.9611 23.8465 91.687 23.425 91.2947 23.186C90.8944 22.9485 90.2586 22.7837 89.3014 22.7837C88.3516 22.7837 87.7183 22.9485 87.3174 23.187C86.9174 23.4277 86.6418 23.8492 86.6418 24.7123V25.7775C86.6418 26.6414 86.918 27.063 87.3186 27.3035L87.3208 27.3049L87.323 27.3062C87.7222 27.549 88.353 27.7169 89.3014 27.7169C90.2586 27.7169 90.8924 27.5485 91.2908 27.3062ZM86.8495 22.3969C87.4452 22.0418 88.2625 21.8642 89.3014 21.8642C90.3476 21.8642 91.1686 22.0418 91.7643 22.3969C92.5053 22.8462 92.8758 23.618 92.8758 24.7123V25.7775C92.8758 26.8718 92.5053 27.6436 91.7643 28.0929C91.1686 28.4553 90.3476 28.6364 89.3014 28.6364C88.2625 28.6364 87.4452 28.4553 86.8495 28.0929C86.1012 27.6436 85.7271 26.8718 85.7271 25.7775V24.7123C85.7271 23.618 86.1012 22.8462 86.8495 22.3969Z" fill="black"/>
</svg>
