<svg width="161" height="25" viewBox="0 0 161 25" fill="none" xmlns="http://www.w3.org/2000/svg">
<path fill-rule="evenodd" clip-rule="evenodd" d="M87.4388 15.6683L87.456 15.699L88.4129 17.405C89.0331 16.2674 89.2625 15.1358 89.4973 13.9771C89.5397 13.768 89.5823 13.558 89.6273 13.347C90.5335 13.5616 91.4414 13.7771 92.4575 14.0184C92.3972 14.2675 92.3419 14.517 92.2867 14.7659C92.1639 15.3204 92.0418 15.8711 91.8669 16.4038C91.5072 17.498 91.087 18.5728 90.6461 19.6356C90.5145 19.9543 90.4938 20.1846 90.7598 20.3826C90.9407 20.5173 91.1277 20.6438 91.3148 20.7703L91.3149 20.7704L91.315 20.7704C91.5369 20.9205 91.7588 21.0706 91.9706 21.2345C92.1104 21.3423 92.2718 21.5329 92.2763 21.6904C92.2967 22.4539 92.2945 23.2185 92.2922 24.0135C92.2915 24.2705 92.2907 24.5307 92.2907 24.7951C91.3747 24.843 90.6182 24.4636 89.8996 24.027C89.5438 23.8109 89.2419 23.4883 88.9511 23.1777L88.9349 23.1603C88.6969 22.9052 88.5147 22.8794 88.2776 23.1428C87.2245 24.3088 85.8649 24.7436 84.3655 24.8283C82.4244 24.9388 80.3038 23.1907 79.8512 21.1885C79.257 18.5553 79.999 16.2491 81.4542 14.1262C82.0646 13.2365 82.4181 12.4942 81.8717 11.3328C81.2955 10.1078 80.9484 8.71065 80.7897 7.35401C80.5715 5.48713 80.778 3.60274 82.1061 2.12269C83.2421 0.8563 84.7397 0.614075 86.3112 1.00274C87.7718 1.3647 88.6455 2.40543 88.9719 3.87997C89.4723 6.13736 88.952 8.20962 87.7358 10.118C87.3386 10.7404 86.9206 11.3491 86.4841 11.9846L86.484 11.9848L86.4826 11.9868C86.2835 12.2767 86.0805 12.5723 85.8739 12.8773H85.873C86.377 13.7751 86.895 14.6987 87.4388 15.6683ZM84.5855 9.88125C85.7657 8.30909 86.4618 6.65404 86.2842 4.70427C86.1859 3.62485 85.8108 3.11277 85.1391 3.0658C84.4187 3.01606 83.9111 3.54472 83.7101 4.59559C83.3575 6.43761 83.8841 8.13042 84.5855 9.88033V9.88125ZM83.8273 15.7941C83.225 16.8892 82.7408 18.0395 82.8211 19.3492C82.8734 20.1975 83.2917 20.8348 84.105 21.101C84.9597 21.381 85.7675 21.2575 86.4338 20.5972C86.5177 20.5143 86.5537 20.2665 86.4951 20.168C85.8093 19.022 85.1105 17.8841 84.4029 16.7316C84.2119 16.4206 84.0203 16.1086 83.8282 15.795L83.8273 15.7941ZM114.586 7.69126C114.313 5.48385 114.04 3.27644 113.768 1.06902L113.769 1.06718C112.635 1.0736 111.5 1.0791 110.365 1.0846L110.365 1.0846L110.349 1.08468L110.35 1.09247C110.435 1.70787 110.521 2.32327 110.608 2.93867C110.66 3.30458 110.712 3.67023 110.765 4.0358L110.766 4.04545C110.849 4.62442 110.932 5.20324 111.013 5.78274C111.055 6.08954 111.094 6.39716 111.133 6.70482L111.133 6.70526L111.133 6.70571L111.133 6.70618L111.134 6.70667L111.134 6.70717L111.134 6.70762L111.134 6.70809L111.134 6.70977C111.178 7.05528 111.222 7.40086 111.271 7.74541C111.341 8.24554 111.419 8.74506 111.497 9.24447L111.498 9.24543L111.551 9.5865C111.601 9.91192 111.653 10.2372 111.705 10.5626L111.705 10.5629L111.705 10.5633L111.705 10.5636L111.705 10.5649C111.798 11.1504 111.891 11.736 111.977 12.3228C112.09 13.0793 112.194 13.8371 112.299 14.5951L112.299 14.5971L112.37 15.1116C112.419 15.4581 112.466 15.8046 112.513 16.1512L112.513 16.1536L112.513 16.1539L112.513 16.1541L112.513 16.1543L112.513 16.1546L112.513 16.1548L112.513 16.155L112.514 16.1552L112.514 16.1555L112.514 16.1557L112.514 16.1559C112.591 16.7217 112.668 17.2875 112.749 17.8525C112.824 18.3727 112.904 18.8922 112.984 19.4116L112.984 19.4123L112.984 19.4131L112.984 19.4138L112.984 19.4146L112.984 19.4154L112.985 19.4161L112.985 19.4169L112.985 19.4177L112.985 19.4184L112.985 19.4192C113.045 19.8078 113.104 20.1964 113.162 20.5852C113.201 20.8526 113.238 21.1203 113.275 21.388C113.331 21.7897 113.386 22.1914 113.45 22.5921C113.519 23.0342 113.599 23.4746 113.678 23.915C113.711 24.0966 113.744 24.2781 113.776 24.4599C113.994 24.4589 114.213 24.4589 114.431 24.459C115.059 24.4591 115.687 24.4591 116.314 24.4359C116.441 24.4308 116.564 24.3544 116.688 24.2781C116.744 24.2434 116.801 24.2087 116.857 24.1808C116.858 24.1194 116.858 24.0577 116.857 23.9959C116.855 23.8622 116.854 23.7285 116.874 23.5987C117.479 19.7894 118.089 15.9811 118.703 12.1727C118.747 11.8995 118.81 11.6298 118.873 11.36L118.873 11.3595C118.901 11.2365 118.93 11.1135 118.957 10.9901C119.13 11.073 119.175 11.1531 119.188 11.2388C119.239 11.5997 119.287 11.9613 119.335 12.3228C119.425 13.003 119.515 13.6833 119.63 14.3592C119.783 15.2595 119.95 16.1575 120.117 17.0555L120.117 17.0563L120.117 17.0571L120.117 17.0578L120.117 17.0586L120.117 17.0593L120.117 17.0601L120.118 17.0608L120.118 17.0616L120.118 17.0623L120.118 17.0631C120.269 17.8749 120.419 18.6867 120.56 19.5002C120.75 20.5991 120.925 21.701 121.101 22.803L121.101 22.8036L121.101 22.8042L121.101 22.8052C121.178 23.2912 121.256 23.7771 121.334 24.2628C121.374 24.2822 121.414 24.3069 121.455 24.3315C121.541 24.3848 121.628 24.438 121.715 24.4387C122.383 24.4441 123.052 24.4364 123.72 24.4287H123.72H123.72H123.72H123.72C123.952 24.426 124.183 24.4233 124.414 24.4212C124.415 24.3972 124.415 24.373 124.414 24.3487C124.414 24.2949 124.413 24.2409 124.421 24.1882C124.553 23.3149 124.686 22.4419 124.819 21.5689L124.819 21.5643L124.82 21.5641L124.82 21.5639L124.82 21.5637L124.82 21.5635L124.82 21.5632L124.82 21.563L124.82 21.5628L124.82 21.5626L124.82 21.5624C125.064 19.9607 125.307 18.3589 125.543 16.7556C125.725 15.5164 125.901 14.2762 126.076 13.036L126.077 13.032L126.077 13.028C126.253 11.7878 126.428 10.5476 126.611 9.30836C126.895 7.37202 127.188 5.43706 127.482 3.50217L127.483 3.49394C127.605 2.68627 127.728 1.87861 127.849 1.07087C127.298 1.06994 126.746 1.06925 126.194 1.06856C125.642 1.06787 125.091 1.06718 124.54 1.06626C124.038 5.05188 123.538 9.0382 123.037 13.024L123.018 13.1768L123.011 13.2338L122.826 14.7027C122.267 11.8441 121.805 8.99086 121.342 6.1368L121.332 6.0701C121.061 4.40399 120.792 2.73789 120.522 1.07179C120.043 1.06576 119.564 1.05951 119.085 1.05325L119.085 1.05324C118.612 1.04707 118.14 1.04089 117.667 1.03495C117.644 1.13372 117.619 1.23224 117.594 1.33078L117.594 1.33087L117.593 1.33096L117.593 1.33106L117.593 1.33116L117.593 1.33126L117.593 1.33136L117.593 1.33147L117.593 1.33159L117.593 1.33171L117.593 1.33184C117.536 1.55455 117.479 1.77743 117.446 2.00385C117.377 2.48133 117.314 2.95966 117.252 3.43789L117.251 3.43892L117.251 3.43902L117.251 3.43914L117.251 3.43924L117.251 3.43935L117.251 3.43945L117.251 3.43955L117.251 3.43964L117.251 3.43973L117.251 3.43982L117.251 3.43991C117.168 4.07994 117.084 4.71979 116.985 5.35724C116.899 5.9095 116.798 6.45919 116.697 7.00878L116.697 7.00936L116.697 7.00953L116.697 7.00969L116.697 7.00985L116.697 7.01002L116.697 7.01018L116.697 7.01034L116.697 7.0105L116.697 7.01066L116.697 7.01082L116.697 7.01099C116.598 7.55044 116.499 8.0898 116.414 8.63142C116.249 9.68513 116.097 10.7413 115.945 11.7974C115.867 12.341 115.789 12.8847 115.709 13.428C115.678 13.6408 115.642 13.8523 115.605 14.0637C115.588 14.168 115.57 14.2723 115.552 14.3767C115.532 14.3759 115.511 14.3749 115.491 14.3739C115.464 14.3726 115.437 14.3713 115.411 14.3702C115.136 12.1439 114.861 9.91758 114.586 7.69126ZM136.565 24.4018V24.4028L136.564 24.4018H136.565ZM136.565 24.4018C136.567 23.8059 136.57 23.2099 136.572 22.614V22.6136V22.6132V22.6129V22.6125V22.6121V22.6117V22.6114V22.611V22.6106V22.6103C136.577 21.4165 136.582 20.2228 136.581 19.0296C136.58 14.7531 136.575 10.4772 136.571 6.20097V6.19986V6.19874V6.19763V6.19652V6.19542V6.19432V6.19321V6.19208V6.19095V6.18982L136.566 1.09574L139.988 1.03772C140.18 1.59077 140.372 2.14376 140.564 2.69673L140.591 2.77466C141.115 4.28058 141.638 5.78641 142.158 7.29321C142.699 8.86155 143.237 10.4307 143.776 11.9999L143.783 12.0208C144.052 12.8074 144.322 13.5939 144.592 14.3804L144.641 14.49L144.691 14.5996L144.714 14.5942L144.731 14.5904L144.731 14.5903L144.745 14.5872L144.772 14.5811V14.1897C144.772 13.49 144.771 12.7903 144.771 12.0905C144.771 10.2206 144.77 8.35076 144.774 6.48088C144.776 5.18755 144.783 3.89423 144.79 2.6009C144.793 2.08445 144.796 1.56799 144.799 1.05154C145.332 1.06167 145.865 1.07157 146.399 1.08147C146.932 1.09137 147.465 1.10127 147.999 1.1114C147.995 1.1658 147.991 1.22021 147.987 1.27461L147.987 1.27519C147.977 1.39467 147.968 1.51414 147.968 1.63361C147.966 9.04312 147.966 16.4535 147.968 23.8631C147.968 23.9849 147.977 24.1067 147.986 24.2286C147.99 24.2808 147.994 24.333 147.998 24.3853C147.769 24.3907 147.54 24.3967 147.311 24.4027C146.651 24.42 145.992 24.4373 145.332 24.4414C145.185 24.4421 145.038 24.405 144.891 24.3679C144.822 24.3506 144.754 24.3333 144.685 24.3199C144.486 23.738 144.288 23.1561 144.089 22.5742L144.085 22.5621L144.081 22.5499L144.078 22.5409C143.552 21.0006 143.026 19.4604 142.494 17.9216C141.982 16.4398 141.465 14.9599 140.947 13.4799L140.947 13.4795L140.946 13.4791L140.946 13.4787L140.946 13.4783L140.946 13.4779L140.946 13.4775L140.945 13.4762L140.945 13.4749L140.945 13.4736L140.94 13.461C140.734 12.872 140.528 12.283 140.322 11.6938C140.264 11.5048 140.206 11.3159 140.147 11.127L140.14 11.1031C140.059 10.8396 139.977 10.5762 139.896 10.3132L139.745 10.3519V24.4018H136.565ZM16.5377 19.611L16.5377 19.611L16.5377 19.611L16.5377 19.611L16.5377 19.611L16.5377 19.6109L16.5377 19.6109L16.5377 19.6109L16.5377 19.6109C16.5708 19.5251 16.6039 19.4393 16.6329 19.3529L16.6338 19.3538C16.8848 19.3523 17.1358 19.3506 17.3869 19.3489L17.3879 19.3489L17.389 19.3489L17.3899 19.3489L17.3909 19.3489L17.3918 19.3489L17.3928 19.3489L17.3938 19.3489L17.3947 19.3489H17.3951H17.3955H17.3959H17.3963H17.3966H17.397H17.3974H17.3978C18.2227 19.3433 19.048 19.3377 19.8733 19.3391C19.9387 19.3391 20.0038 19.3732 20.069 19.4075C20.099 19.4232 20.129 19.439 20.1591 19.4514L20.2642 20.1466C20.325 20.5481 20.3857 20.9493 20.4458 21.3506C20.5891 22.3084 20.7316 23.2653 20.874 24.2232C20.902 24.2509 20.93 24.2861 20.958 24.3212C21.0183 24.3971 21.0785 24.4728 21.1382 24.4728C22.0231 24.4677 22.9075 24.4486 23.7917 24.4295L23.7922 24.4295L23.7927 24.4295C24.0397 24.4242 24.2867 24.4189 24.5337 24.4138C24.4789 24.1354 24.4226 23.8573 24.3662 23.5792C24.2408 22.9602 24.1154 22.3411 24.0071 21.719C23.6668 19.7684 23.3349 17.8167 23.003 15.8648C22.9014 15.2674 22.7998 14.6701 22.698 14.0728L22.6517 13.8013L22.6512 13.7985C22.1836 11.0551 21.716 8.31249 21.2527 5.56817C21.0856 4.57895 20.9233 3.58891 20.761 2.59887C20.6799 2.10394 20.5987 1.609 20.517 1.11418L16.0612 1.07273C16.0195 1.28236 15.9767 1.49172 15.9338 1.70106L15.9338 1.70111L15.9338 1.70114L15.9338 1.70117L15.9338 1.7012L15.9338 1.70122C15.8387 2.16601 15.7436 2.6307 15.6609 3.09803C15.4815 4.1139 15.3165 5.13253 15.1524 6.15117C15.0573 6.74362 14.9652 7.33658 14.8731 7.92965L14.873 7.92995C14.7896 8.46711 14.7062 9.00436 14.6205 9.5414C14.5477 9.99551 14.4728 10.4493 14.3979 10.903C14.3048 11.467 14.2117 12.0309 14.1228 12.5955C14.0402 13.1209 13.961 13.6468 13.8818 14.1727L13.8818 14.1728L13.8817 14.173L13.8817 14.1732L13.8817 14.1733L13.8817 14.1735L13.8816 14.1737L13.8816 14.1738L13.8816 14.174L13.8816 14.1741L13.8815 14.1742L13.8815 14.1743L13.8815 14.1744L13.8815 14.1744L13.8815 14.1745L13.8815 14.1746L13.8815 14.1747C13.7931 14.7616 13.7047 15.3486 13.6116 15.935C13.5529 16.3054 13.488 16.6745 13.4231 17.0436L13.4231 17.0436L13.4231 17.0437L13.423 17.0438L13.423 17.0438L13.423 17.0439L13.423 17.0439L13.423 17.044L13.423 17.044C13.3483 17.4687 13.2736 17.8933 13.2085 18.3195C13.1414 18.7579 13.0838 19.1977 13.0262 19.6376C12.9716 20.0545 12.9169 20.4714 12.8542 20.8873C12.7325 21.692 12.6029 22.4958 12.4733 23.2996C12.4119 23.6808 12.3504 24.062 12.2898 24.4433C12.8596 24.4461 13.4297 24.4491 13.9997 24.452C14.5697 24.455 15.1398 24.458 15.7096 24.4608C15.7673 24.0796 15.8244 23.6983 15.8815 23.3169C16.0386 22.2674 16.1958 21.2176 16.3651 20.1698C16.3958 19.9789 16.4668 19.7949 16.5377 19.611ZM18.9765 11.5032C19.1978 13.0047 19.42 14.5123 19.6442 16.0327H19.6433H16.9737C17.3934 13.042 17.807 10.0907 18.2204 7.13959L18.2211 7.1348L18.2242 7.1127L18.2595 7.11156L18.2596 7.11156C18.2826 7.11074 18.3055 7.10994 18.3288 7.10994C18.5445 8.57254 18.7601 10.0349 18.9765 11.5032ZM49.0269 24.412C49.0322 24.3489 49.0391 24.2859 49.0461 24.2228C49.0604 24.0935 49.0746 23.9643 49.0746 23.8355C49.0773 16.4683 49.0773 9.1021 49.0746 1.73496C49.0746 1.60512 49.0603 1.47529 49.046 1.34574C49.039 1.28322 49.0321 1.22076 49.0269 1.15841C49.0682 1.15138 49.1095 1.14239 49.1508 1.13339C49.2393 1.11413 49.3278 1.09486 49.4164 1.09486C51.9181 1.09486 54.4198 1.09806 56.921 1.10126L58.4045 1.10313C58.4036 1.64399 58.4029 2.18485 58.4023 2.72572C58.4016 3.26585 58.4009 3.80599 58.4001 4.34613L52.6937 4.37917L52.5783 4.40404C52.5709 4.43878 52.5616 4.47351 52.5523 4.50825C52.5319 4.58403 52.5116 4.65982 52.5116 4.7356C52.508 6.61999 52.508 8.50345 52.5125 10.3878C52.5125 10.4634 52.5329 10.5386 52.5523 10.6098C52.5605 10.6401 52.5685 10.6696 52.5747 10.6982H56.5923C56.6121 10.7568 56.6366 10.8153 56.661 10.8737L56.6611 10.8738L56.6611 10.8739C56.7147 11.0018 56.7683 11.1296 56.7726 11.2591C56.7931 11.9081 56.7976 12.5575 56.8021 13.2071V13.2075C56.8037 13.4437 56.8054 13.68 56.8078 13.9162C56.5577 13.9241 56.3075 13.9327 56.0572 13.9414C55.4929 13.9608 54.9284 13.9802 54.3644 13.9917C53.9469 14.0001 53.529 13.9981 53.1055 13.9962C52.9199 13.9953 52.7332 13.9945 52.5449 13.9945C52.5394 14.0694 52.5338 14.1341 52.5287 14.1923L52.5287 14.1926L52.5286 14.1928L52.5286 14.1929C52.5189 14.3046 52.5113 14.3918 52.5107 14.4789C52.5089 16.5595 52.508 18.641 52.5116 20.7215C52.5116 20.8232 52.5321 20.9253 52.5526 21.0273C52.5622 21.0749 52.5717 21.1226 52.5792 21.1701C53.0004 21.1759 53.4217 21.1822 53.8431 21.1885L53.8442 21.1885L53.8453 21.1885L53.8465 21.1885L53.8476 21.1886L53.8487 21.1886C54.6963 21.2013 55.5439 21.214 56.3912 21.2226C56.8423 21.2269 57.2934 21.2232 57.7442 21.2196H57.7444H57.7447H57.7449H57.7452H57.7454H57.7457H57.7459C57.9595 21.2178 58.173 21.2161 58.3865 21.2152C58.3937 22.3011 58.4009 23.386 58.409 24.4719C55.4111 24.4774 52.4124 24.4829 49.4145 24.4838C49.3261 24.4838 49.2372 24.4622 49.1485 24.4405C49.1079 24.4306 49.0673 24.4207 49.0269 24.4129V24.412ZM58.409 24.4719L58.4171 24.4719L58.409 24.4802L58.409 24.4719ZM58.4001 4.34613L58.4198 4.34602L58.4 4.37181L58.4001 4.34613ZM58.4045 1.10313L58.4045 1.08657L58.4198 1.10315L58.4045 1.10313ZM158.75 10.8428L158.569 10.6576L158.57 10.6567C157.224 10.6512 155.879 10.6457 154.533 10.6392H154.531C154.521 10.6056 154.509 10.5721 154.497 10.5386C154.471 10.4675 154.445 10.3965 154.445 10.3251C154.44 8.44169 154.44 6.55731 154.445 4.67385C154.445 4.60169 154.471 4.52953 154.497 4.45737L154.497 4.45679C154.509 4.42323 154.521 4.38966 154.531 4.3561L154.646 4.33952L154.689 4.33921L154.692 4.33919C156.576 4.32556 158.459 4.31194 160.343 4.29921L160.343 4.33215H160.374V4.299L160.343 4.29921L160.348 1.07094L160.375 1.07086C160.375 1.07086 160.349 1.04692 160.348 1.04692L160.348 1.07094C158.793 1.07505 157.239 1.07894 155.684 1.08284L155.683 1.08284L155.683 1.08284L155.683 1.08284L155.683 1.08284L155.683 1.08284L155.683 1.08284L155.682 1.08284C154.119 1.08675 152.555 1.09067 150.992 1.09481L150.997 6.2209C151.001 10.5291 151.005 14.8374 151.007 19.1456C151.008 20.3142 151.003 21.4823 150.998 22.6506V22.6509V22.6513V22.6517V22.652V22.6524V22.6528C150.995 23.236 150.993 23.8193 150.991 24.4028C151.132 24.4076 151.273 24.4137 151.414 24.4199C151.727 24.4334 152.039 24.447 152.352 24.447C154.432 24.4448 156.512 24.4388 158.592 24.4327L160.352 24.4277L160.352 24.4451L160.374 24.4276L160.352 24.4277C160.348 23.8892 160.345 23.3507 160.341 22.8122C160.337 22.2678 160.333 21.7235 160.329 21.1792C159.363 21.1728 158.398 21.1666 157.432 21.1604C156.465 21.1541 155.497 21.1479 154.53 21.1415C154.52 21.1015 154.508 21.0616 154.496 21.0217C154.47 20.9363 154.444 20.851 154.444 20.7657C154.439 18.6455 154.439 16.5254 154.444 14.4052C154.445 14.3187 154.47 14.2327 154.494 14.1464C154.506 14.1075 154.517 14.0685 154.526 14.0294C154.846 14.0226 155.166 14.0163 155.486 14.0099C156.339 13.9929 157.193 13.9759 158.046 13.9512C158.21 13.9462 158.373 13.917 158.536 13.8878C158.614 13.874 158.691 13.8602 158.768 13.8489L158.749 13.836C158.75 12.8386 158.75 11.8411 158.75 10.8428ZM71.8133 1.15562C71.7078 1.48318 71.6002 1.81012 71.4926 2.13705L71.4924 2.13761C71.2546 2.86024 71.0168 3.5828 70.8008 4.31191C69.8226 7.60912 68.8551 10.91 67.9021 14.2155C67.7705 14.6714 67.6794 15.1586 67.6767 15.6311C67.6657 17.7551 67.6706 19.8792 67.6756 22.0032V22.0063C67.6775 22.8183 67.6793 23.6303 67.6803 24.4424H64.2335V23.7802L64.2336 22.1385C64.2339 19.9439 64.2342 17.7493 64.2299 15.5546C64.2299 15.4011 64.2046 15.2475 64.1793 15.094C64.1673 15.021 64.1553 14.948 64.146 14.8749C63.9072 14.0987 63.6686 13.3223 63.43 12.546C62.8805 10.7579 62.331 8.96986 61.7784 7.18269C61.3406 5.76566 60.8996 4.35 60.4587 2.93443L60.4583 2.93323L60.4579 2.93186L60.4574 2.9303L60.4568 2.92857L60.4558 2.92524L60.4546 2.92141L60.4536 2.91808C60.2706 2.33061 60.0876 1.74315 59.9048 1.15562C60.4901 1.14286 61.0753 1.13032 61.6604 1.11779L61.6607 1.11779C62.2582 1.10499 62.8556 1.0922 63.4527 1.07917L65.1676 7.41939L65.174 7.44335C65.3964 8.26705 65.6189 9.09173 65.9592 9.92453C66.0483 9.60145 66.1393 9.27892 66.2304 8.95641L66.2304 8.95618L66.2305 8.95595C66.4285 8.25444 66.6264 7.55307 66.8049 6.84652C67.0628 5.82734 67.3124 4.80559 67.562 3.78382L67.5627 3.78108L67.5633 3.77859L67.5639 3.77625L67.5644 3.77407C67.7633 2.95979 67.9622 2.14549 68.1654 1.33245C68.182 1.26597 68.2412 1.2106 68.3004 1.15527L68.3004 1.15521L68.3005 1.15516L68.3005 1.15511L68.3006 1.15508C68.3282 1.12922 68.3559 1.10338 68.3791 1.07641C68.9511 1.08929 69.523 1.10241 70.0948 1.11552L70.0961 1.11555L70.0963 1.11555C70.6685 1.12868 71.2408 1.1418 71.8133 1.15469V1.15562ZM3.80653 4.37821L3.92194 4.40307L3.92284 4.40215C3.93033 4.47482 3.93993 4.54749 3.94954 4.62016C3.97 4.77498 3.99046 4.9298 3.99046 5.08462C3.99317 11.2701 3.99317 17.4556 3.99317 23.6411V24.411H7.47519C7.47013 24.38 7.46339 24.3489 7.45664 24.3177C7.44295 24.2544 7.42921 24.1909 7.42921 24.1274C7.4265 17.6886 7.4256 11.2498 7.43282 4.81108C7.43282 4.7128 7.47988 4.61495 7.52702 4.51695C7.54923 4.47075 7.57147 4.42453 7.5888 4.37821L11.1123 4.33984L11.1123 4.37084H11.142C11.142 4.37084 11.142 4.33952 11.1411 4.33952L11.1123 4.33984C11.1132 3.26276 11.115 2.18567 11.1168 1.10859L11.1411 1.10863L11.1168 1.0856L11.1168 1.10859C9.33068 1.10584 7.54438 1.10332 5.75807 1.1008H5.75805L5.75801 1.1008L5.75796 1.1008L5.75791 1.1008C3.96444 1.09827 2.17096 1.09574 0.377709 1.09298L0.377705 1.09021L0.375 1.09297L0.377709 1.09298L0.379706 2.18136C0.3811 2.9055 0.382494 3.62991 0.383102 4.35432L0.375 4.35426L0.383115 4.369L0.383102 4.35432C0.952472 4.35844 1.52162 4.36234 2.09077 4.36623C2.66261 4.37015 3.23446 4.37406 3.80653 4.37821ZM105.818 4.4611L105.818 4.46125C105.773 4.54774 105.728 4.63408 105.728 4.72085C105.723 11.2379 105.726 17.7549 105.728 24.272C105.728 24.2974 105.735 24.3228 105.742 24.3484C105.746 24.361 105.749 24.3735 105.752 24.3862H102.289V23.6448V23.6056C102.289 17.4166 102.289 11.2267 102.285 5.03767C102.285 4.88272 102.262 4.7282 102.238 4.57352L102.238 4.57328C102.228 4.50279 102.217 4.43227 102.208 4.36165C102.189 4.358 102.17 4.35456 102.151 4.35114L102.151 4.35107L102.12 4.3455L102.093 4.34047L98.6714 4.31294L98.6714 4.30753L98.6714 4.28261C98.6705 3.20746 98.6696 2.13318 98.6678 1.05801L109.406 1.06627C109.405 1.60737 109.404 2.14847 109.404 2.68957C109.403 3.22767 109.402 3.76577 109.402 4.30388L105.874 4.33955L105.875 4.34047C105.859 4.38066 105.838 4.42075 105.818 4.46081L105.818 4.46096L105.818 4.4611ZM109.402 4.30388L109.426 4.30363L109.402 4.33218L109.402 4.30388ZM109.406 1.06627L109.406 1.04695C109.406 1.04603 109.426 1.06629 109.426 1.06629L109.406 1.06627ZM98.6678 1.05801L98.6615 1.058L98.6678 1.05063L98.6678 1.05801ZM98.6714 4.31294L98.6714 4.33218L98.6588 4.31284L98.6714 4.31294ZM35.9715 21.1921H30.3689V21.1931C30.3571 21.1242 30.342 21.0555 30.3269 20.9868L30.3268 20.9868C30.2946 20.8404 30.2625 20.6941 30.2625 20.5474C30.2571 14.2938 30.2571 8.04107 30.2571 1.78743C30.2571 1.6206 30.2525 1.45424 30.2479 1.28768L30.2479 1.28749L30.2479 1.28658L30.2478 1.28567C30.2462 1.22487 30.2445 1.16404 30.243 1.10314L30.258 1.10312L30.2426 1.08654L30.243 1.10314L26.8381 1.10861L26.8382 1.0847C26.8382 1.0847 26.8138 1.10773 26.8147 1.10865L26.8381 1.10861C26.8368 2.89518 26.8351 4.68163 26.8333 6.46804V6.46848V6.46892C26.8305 9.45845 26.8276 12.4479 26.8264 15.4377C26.8258 17.5486 26.8283 19.6591 26.8307 21.7695V21.7698C26.8318 22.6687 26.8328 23.5675 26.8336 24.4663L26.8147 24.4663L26.8337 24.482L26.8336 24.4663C29.8694 24.4617 32.9061 24.458 35.9419 24.4544L35.9715 24.4543V21.1921ZM44.2411 21.1976C43.3191 21.1923 42.3971 21.1871 41.4748 21.182C41.4647 21.1131 41.4519 21.0443 41.4392 20.9756L41.4392 20.9755C41.4111 20.8239 41.383 20.6726 41.383 20.5207C41.3788 15.6833 41.3784 10.8453 41.378 6.00767V5.99307L41.3776 1.84732C41.3776 1.67572 41.3705 1.50412 41.3634 1.33253C41.3601 1.25301 41.3568 1.17349 41.3543 1.09397L41.3586 1.09393L41.3541 1.09025L41.3543 1.09397C40.2248 1.104 39.0963 1.11493 37.9669 1.12586L37.9352 1.12617C37.9363 1.57676 37.9376 2.02727 37.939 2.47775V2.47829C37.9421 3.52757 37.9451 4.57667 37.9451 5.62621C37.9439 9.80549 37.9411 13.9852 37.9383 18.1647V18.1654C37.9369 20.259 37.9355 22.3526 37.9343 24.4461C38.2982 24.4503 38.662 24.4555 39.0258 24.4607C39.786 24.4717 40.546 24.4826 41.3064 24.4838C42.6819 24.4858 44.0575 24.4807 45.4331 24.4757C45.9806 24.4736 46.5282 24.4716 47.0757 24.4701L47.0758 24.4783L47.0839 24.47L47.0757 24.4701C47.0676 23.3842 47.0604 22.2992 47.0532 21.2133C46.1232 21.2083 45.1934 21.203 44.2636 21.1977L44.2411 21.1976ZM133.561 1.25767C133.565 1.20927 133.569 1.16084 133.573 1.11232C132.43 1.09207 131.287 1.07089 130.144 1.04971L130.143 1.04969L130.139 1.05153C130.136 1.11587 130.132 1.1803 130.127 1.24477C130.119 1.37412 130.11 1.50361 130.11 1.63269C130.109 9.00812 130.109 16.3826 130.109 23.7581V24.3862H133.572C133.569 24.3398 133.565 24.2933 133.561 24.2469C133.551 24.1386 133.542 24.0303 133.542 23.922C133.54 16.4729 133.54 9.0247 133.542 1.57559C133.542 1.46938 133.551 1.3636 133.561 1.25767Z" fill="black"/>
</svg>
